<?xml version="1.0" encoding="UTF-8" standalone="no"?>
<svg
   xmlns:dc="http://purl.org/dc/elements/1.1/"
   xmlns:cc="http://creativecommons.org/ns#"
   xmlns:rdf="http://www.w3.org/1999/02/22-rdf-syntax-ns#"
   xmlns:svg="http://www.w3.org/2000/svg"
   xmlns="http://www.w3.org/2000/svg"
   xmlns:sodipodi="http://sodipodi.sourceforge.net/DTD/sodipodi-0.dtd"
   xmlns:inkscape="http://www.inkscape.org/namespaces/inkscape"
   viewBox="0 0 453.5433 340.15747"
   version="1.0"
   sodipodi:docname="meme.svg"
   inkscape:version="1.0 (4035a4fb49, 2020-05-01)"
   sodipodi:version="0.32"
   id="svg2"
   height="340.15747"
   width="453.5433">
  <defs
     id="defs4" />
  <sodipodi:namedview
     inkscape:window-maximized="1"
     inkscape:document-rotation="0"
     inkscape:guide-bbox="true"
     showguides="true"
     inkscape:guide-points="true"
     inkscape:grid-bbox="true"
     inkscape:grid-points="true"
     inkscape:object-paths="false"
     grid_units="mm"
     showgrid="true"
     units="cm"
     height="9.6cm"
     width="12.8cm"
     inkscape:window-y="-8"
     inkscape:window-x="-8"
     inkscape:window-height="1017"
     inkscape:window-width="1920"
     inkscape:current-layer="layer1"
     inkscape:document-units="mm"
     inkscape:cy="199.40516"
     inkscape:cx="168.67447"
     inkscape:zoom="1.0892718"
     inkscape:pageshadow="2"
     inkscape:pageopacity="0.0"
     borderopacity="1.0"
     bordercolor="#666666"
     pagecolor="#ffffff"
     id="base">
    <sodipodi:guide
       id="guide3573"
       position="56.476527"
       orientation="vertical" />
    <sodipodi:guide
       id="guide3579"
       position="11.035643"
       orientation="horizontal" />
    <sodipodi:guide
       id="guide3886"
       position="24.018753"
       orientation="horizontal" />
    <sodipodi:guide
       id="guide3988"
       position="285.62841"
       orientation="horizontal" />
    <sodipodi:guide
       id="guide4081"
       position="303.15561"
       orientation="horizontal" />
    <inkscape:grid
       empspacing="5"
       empopacity="0.38"
       opacity="0.15"
       empcolor="#3f3fff"
       color="#3f3fff"
       spacingy="7.5590551"
       spacingx="7.5590551"
       originy="0"
       originx="0"
       type="xygrid"
       id="GridFromPre046Settings" />
  </sodipodi:namedview>
  <metadata
     id="metadata7">
    <rdf:RDF>
      <cc:Work
         rdf:about="">
        <dc:format>image/svg+xml</dc:format>
        <dc:type
           rdf:resource="http://purl.org/dc/dcmitype/StillImage" />
      </cc:Work>
    </rdf:RDF>
  </metadata>
  <g
     id="layer1"
     inkscape:groupmode="layer"
     inkscape:label="Layer 1">
    <g
       fill-rule="evenodd"
       fill="none"
       stroke-width="1"
       stroke="none"
       id="Introduction-0"
       transform="matrix(0.70725363,0,0,0.72515532,37.730145,100.5278)">
      <g
         transform="translate(-126,-434)"
         id="variations-6">
        <g
           transform="translate(126,110)"
           id="images-9">
          <g
             transform="translate(0,324)"
             id="a-person/bust-3">
            <g
               fill-rule="evenodd"
               transform="translate(31.056338,135.05284)"
               id="body/Whatever">
              <path
                 fill="#ffffff"
                 id="ðŸŽ¨-Background-5"
                 d="m 214.85742,59.887415 c 2.16402,-1.129996 4.2769,-2.357773 6.35641,-3.635711 1.46472,-0.876439 0.16796,-3.084152 -1.33394,-2.286446 -0.76796,0.408059 -1.53296,0.82014 -2.30071,1.22566 0.60423,-0.520657 1.1643,-1.087454 1.66648,-1.705258 l -0.0346,-0.0345 c 1.93606,-1.735313 -0.55077,-5.009526 -2.7526,-3.584068 -1.94176,1.408102 -3.90127,2.844777 -6.13014,3.772012 -4.61662,1.95839 -9.70881,2.282425 -14.66388,2.338936 -1.81331,-0.136302 -3.54528,0.177997 -5.30471,0.528276 0.68978,-2.768372 2.41605,-4.858831 3.33169,-7.540004 0.67563,-2.706993 -3.23029,-4.550881 -4.61451,-1.948866 -0.33972,0.638969 -0.66359,1.285346 -0.98028,1.934897 -2.99197,2.722445 -7.98803,2.482646 -11.00557,5.405734 -1.71875,1.526104 -2.55999,3.596858 -2.89219,5.675107 -0.22558,1.411277 0.12511,2.826011 -0.72788,4.075996 -4.12373,5.834958 -10.63959,15.057785 -13.94867,21.479222 -2.34296,-15.259063 -8.59886,-34.132671 -15.06175,-48.085224 -2.13718,-4.462201 -4.58218,-8.822386 -7.79176,-12.60477 0.3638,-1.261429 -0.92028,-3.500467 -1.73683,-2.811125 -2.51345,-3.071665 -6.95641,-3.866831 -10.52894,-5.393881 C 119.58038,14.630459 115.57918,10.342446 113.61228,5.4687989 111.0851,-3.81202 104.8639,-4.9909062 96.235944,-4.58073 87.978761,-4.5911008 81.869535,-1.0580401 80.067845,7.3507839 76.407634,13.733067 67.765521,12.677572 61.548127,14.367168 c -4.55662,1.041314 -8.978662,2.65133 -13.181197,4.695226 -4.675141,-4.436379 -21.419155,14.182404 -22.941127,18.974142 0.895986,0.173764 1.786479,0.382874 2.668943,0.6377 0.785916,0.227311 0.455916,1.414875 -0.33676,1.224814 -0.986409,-0.237048 -1.979155,-0.400229 -2.976549,-0.513462 -0.03042,0.09545 -0.05704,0.190273 -0.0769,0.284034 -0.111972,-0.0076 -0.223732,-0.01714 -0.335704,-0.02476 0.248239,0.129318 0.487183,0.279377 0.72,0.472824 0.562817,0.467533 -0.169859,1.369794 -0.767958,0.997291 C 23.757424,40.69316 23.019467,40.75983 22.343622,40.618237 22.303482,42.008561 17.344396,40.45315 16.574115,39.99239 13.150521,39.564009 9.6284789,40.023711 6.4324225,38.372 2.1798169,37.476089 -2.1046901,36.485359 -6.3095493,35.344358 c -1.113169,0.434093 -2.1593662,1.987598 -1.2752113,3.127541 0.497324,0.518752 -0.1419718,1.365772 -0.768169,0.997079 -2.1002114,-1.236666 -3.7244364,-3.167119 -5.1014794,-5.246784 -0.648169,-0.654208 -1.798732,-0.513461 -2.669577,-0.785007 -0.116408,0.209321 -0.18507,0.442558 -0.184014,0.681722 -3.694014,0.60828 -1.058873,4.644431 0.798169,5.90205 -0.985141,0.641721 -1.022535,1.898282 -0.936338,2.947639 -0.208732,0.373773 -0.278451,0.837073 -0.09676,1.255927 0.694648,1.601338 2.196972,2.949967 3.339296,4.247377 1.261268,1.432865 2.385845,2.873561 3.9204931,4.035092 5.8495775,4.46072 12.908662,6.954582 20.1504929,7.929862 2.571338,0.395149 6.27,0.999831 7.862113,3.17495 -0.390634,2.581486 -1.107888,5.057147 -1.758592,7.574503 -0.909929,3.341306 -0.848028,6.839445 -0.86007,10.245939 -0.127183,-0.102226 -0.371409,-0.08106 -0.407747,0.113656 -0.21169,1.412124 -0.369084,2.855995 -1.227042,4.0425 -0.752113,2.206444 -1.252605,4.559771 -1.533803,6.877754 -1.126479,10.989252 -1.395422,22.302542 1.144437,33.120562 0.98007,4.0133 2.574084,7.82743 4.745915,11.33953 0.647536,1.04746 1.688662,1.35435 2.623521,1.14862 3.128874,1.62611 7.070493,2.1474 10.442958,1.73426 11.497395,-3.25601 7.491338,4.58453 23.61169,2.18358 27.825423,-3.54597 55.945987,3.42237 83.712257,-0.66881 0.68387,5.28425 9.63612,3.76842 12.74577,1.53446 9.32408,-6.93427 13.9538,-28.88843 18.63317,-40.02562 3.21655,-8.778155 8.6026,-24.325907 15.6562,-30.216317 2.115,-1.654885 4.67155,-2.526034 7.22957,-3.229344 9.54676,-2.461057 19.13029,-4.788352 28.69521,-7.181047 1.62212,-0.399594 1.33057,-3.167119 -0.40394,-2.989545 -2.30197,0.235565 -4.61176,0.448908 -6.92155,0.670928 z" />
              <path
                 fill="#000000"
                 id="ðŸ–-Ink-4"
                 d="M 2.3334084,58.241335 C 1.6869296,58.161128 1.0531268,57.930756 0.4235493,57.748995 -0.53771831,57.467899 -1.4799718,57.140306 -2.4074366,56.766216 -4.3215211,55.999226 -6.1785634,55.092322 -7.9194084,53.982733 -10.73138,52.188369 -13.215887,49.888877 -15.089831,47.120189 l -0.128654,-0.193095 c -1.069825,-1.630189 -3.043233,-5.250021 -0.830501,-6.487688 -1.42612,-1.192079 -2.774007,-3.333058 -2.697951,-4.985817 0.107747,-2.337534 2.972536,-2.30562 4.453521,-1.314599 0.969719,0.648846 1.696479,1.557652 2.425353,2.451875 0.807042,0.993135 1.669014,1.939984 2.5647883,2.850904 0.2376761,0.240939 0.4777289,0.477123 0.7219411,0.709444 l 0.2456435,0.231044 c -0.038007,-0.09078 -0.07181,-0.183769 -0.1013874,-0.279088 -0.4943662,-1.540533 0.09507,-3.546247 1.6352113,-4.252157 0.9425112,-0.432237 1.9213425,-0.168384 2.834667,0.19855 l 0.1399809,0.05718 c 1.2295774,0.509143 2.4739437,0.95953 3.75422534,1.320939 5.21830986,1.473112 10.66478896,1.718278 16.01197196,2.453777 2.059859,0.285323 4.157746,0.644407 6.207042,1.172783 0.781648,-3.32025 2.697845,-6.502974 4.776718,-9.121604 9.95493,-12.526943 26.372536,-16.667084 41.39155,-19.347006 1.369014,-0.243053 2.503605,1.570248 3.300084,1.141207 1.510564,-0.811585 2.839437,-1.96133 4.005634,-3.210411 2.48662,-2.6651269 4.250704,-5.7994517 6.323239,-8.7689234 1.024648,-1.466771 3.382395,-0.1542857 2.431691,1.420274 L 83.9092,3.9372901 c -1.917631,3.1520228 -4.041159,6.4003709 -6.791306,8.8448159 -1.461971,1.297691 -3.084507,2.32274 -4.939436,2.96292 -1.40493,0.484204 -3.376057,0.89211 -4.914085,0.422701 l -0.184585,-0.268971 c 0.06107,0.08994 0.122571,0.179647 0.184543,0.269119 4.014042,5.818452 9.050662,10.742914 14.357704,15.390507 5.356833,4.688549 11.13567,8.887102 16.949265,12.992206 l 0.484538,0.341884 c 9.471062,-6.910896 17.471722,-15.925121 23.085092,-26.224133 -1.17656,-0.141774 -2.34064,-0.896083 -3.34627,-1.458486 -1.21057,-0.680337 -2.3493,-1.492133 -3.23662,-2.574247 -1.9331,-2.356555 -1.68169,-5.3936592 -2.03029,-8.2532287 -0.0211,-0.1775343 0.21338,-0.2219178 0.32113,-0.1331507 1.04789,0.8707632 1.41549,2.2973777 1.85282,3.5295499 0.48169,1.3547555 1.02676,2.4708965 2.13169,3.4238745 1.02887,0.887883 2.2838,1.540744 3.50281,2.121957 0.62866,0.298222 3.74939,1.064622 4.10487,1.699362 5.39161,-1.26603 10.64373,0.921445 14.6388,4.611621 3.85985,3.56548 6.69295,8.200392 9.19436,12.776126 2.66831,4.882191 4.85493,9.971295 6.73944,15.202215 1.90986,5.309331 3.37394,10.734693 4.17887,16.322794 0.67944,4.711252 1.09602,9.49652 1.36565,14.260441 l 0.0329,0.595372 c 3.98867,-6.262352 8.0767,-12.459142 12.24924,-18.600982 -0.9486,-2.53409 0.1014,-5.121018 1.87816,-7.078121 1.96902,-2.166341 4.69226,-3.172368 7.29719,-4.343249 l 0.34239,-0.154941 c 1.25552,-0.572926 2.5069,-1.203865 3.59141,-2.062124 1.04366,-0.828493 1.81056,-1.969784 2.90916,-2.732759 1.59718,-1.111702 4.49577,-0.87499 4.56971,1.553425 0.038,1.333832 -0.5345,2.796164 -1.05845,3.99452 -0.59366,1.354967 -1.39436,2.582701 -2.34507,3.711312 -0.0439,0.05258 -0.0919,0.09408 -0.14075,0.126965 l -0.0367,0.02309 c 1.31408,0.217691 2.63873,0.393112 3.98873,0.454403 2.72324,0.124697 5.47606,-0.07609 8.14225,-0.650959 2.72958,-0.587553 5.37465,-1.542645 7.82958,-2.874364 2.09789,-1.137064 4.04155,-2.608062 6.42465,-2.954677 0.2197,-0.03377 0.44153,-0.05491 0.6697,-0.06759 0.38028,-0.02113 0.76056,0.426927 0.61056,0.802919 -0.0824,0.207335 -0.16901,0.412345 -0.26408,0.619468 -0.82393,1.815388 -2.0877,3.576582 -3.66403,4.913298 l -0.12187,0.101981 c 0.55568,-0.192286 1.10286,-0.407864 1.64159,-0.650916 3.1669,-1.426615 6.04014,-3.582388 9.43521,-4.448924 0.16057,-0.04229 0.32324,-0.08033 0.48592,-0.116264 1.05,-0.226145 1.60352,0.915147 0.98662,1.697143 -0.0993,0.12681 -0.19859,0.251507 -0.30211,0.376203 -1.51479,1.880955 -3.18592,3.626708 -5.02817,5.194927 -0.63169,0.53683 -1.2824,1.056752 -1.94578,1.553636 -0.27955,0.210531 -0.56067,0.416507 -0.84468,0.619142 l -0.13989,0.09924 c 0.33169,-0.234388 0.65916,-0.473214 0.98451,-0.71838 2.07887,-0.630035 4.12817,-1.376102 6.1331,-2.20227 0.79648,-0.327804 1.41549,0.479554 1.5,1.143194 0.2831,2.223616 -2.18451,3.831992 -3.79014,4.901213 -1.60986,1.073871 -3.3824,1.889683 -5.19719,2.544658 -3.4893,1.26151 -7.15413,1.834369 -10.81323,2.347739 l -1.77721,0.247632 c -7.03454,0.984027 -14.38186,2.160496 -19.42927,7.636308 -2.82888,3.068595 -4.74296,6.881354 -6.49437,10.632822 -1.7493,3.747452 -3.28521,7.594027 -4.74296,11.461737 -1.51056,4.002766 -2.82676,8.079716 -4.22535,12.122846 -1.28451,3.71247 -2.81879,7.37745 -4.33839,11.00526 l -0.23978,0.57251 c -3.22605,7.71027 -7.07958,14.97205 -12.45,21.40978 -0.88521,1.06309 -2.31549,-0.44574 -1.49789,-1.49847 5.61761,-7.24509 9.52606,-15.794 12.75212,-24.32219 1.46831,-3.88018 2.69788,-7.85378 4.10915,-11.75531 l 0.83977,-2.31773 c 1.1213,-3.08966 2.25234,-6.17538 3.43206,-9.240805 1.49366,-3.878489 3.13521,-7.71027 5.01338,-11.417354 l 0.19925,-0.390311 c 1.83883,-3.576305 4.02347,-7.100926 7.03033,-9.807341 5.41209,-4.873404 12.61376,-6.042611 19.57682,-6.968651 l 2.19053,-0.288781 c 2.94386,-0.391247 5.89603,-0.82337 8.75871,-1.610826 1.65211,-0.452079 3.26619,-1.03139 4.7831,-1.830294 0.60422,-0.317025 1.19366,-0.665542 1.76408,-1.045972 -1.62676,0.477651 -3.27676,0.868438 -4.95634,1.174896 -0.82183,0.150058 -1.63521,0.262286 -2.44648,0.340485 -2.08935,0.206849 -4.16188,0.198395 -6.30203,0.08659 -0.18169,-0.01078 -0.24084,-0.29589 -0.0465,-0.33182 1.49039,-0.265148 2.98254,-0.596671 4.46849,-0.956459 l 0.44557,-0.108894 c 0.008,-0.247069 0.10563,-0.509354 0.30845,-0.758536 0.73944,-0.900352 2.14437,-1.361307 3.11831,-1.997472 1.02042,-0.665753 2.00915,-1.384133 2.95141,-2.153659 0.86197,-0.703586 1.69014,-1.44775 2.48662,-2.225308 l 0.23877,-0.234741 c -0.0793,0.07854 -0.15884,0.156767 -0.23877,0.234615 -2.1507,0.993557 -4.18944,2.267788 -6.43521,3.054223 -1.78521,0.627499 -3.65705,1.050199 -5.54578,1.200258 l -0.11725,0.0092 -0.11725,0.0077 c -1.97115,0.141626 -3.95496,0.08456 -5.8965,0.511489 -0.21761,0.04861 -0.28522,-0.243053 -0.0909,-0.32548 1.69648,-0.70591 3.46056,-0.978551 5.24366,-1.308258 0.038,-0.139555 0.13519,-0.264251 0.30421,-0.344564 l 0.45621,-0.217894 c 1.35858,-0.652743 2.62491,-1.311648 3.75435,-2.371147 0.99718,-0.936282 1.82747,-2.030865 2.4507,-3.244227 -2.49507,0.547418 -4.68591,2.439003 -6.95493,3.502095 -2.47183,1.160313 -5.08732,1.993033 -7.77464,2.466669 l -0.30618,0.05247 c -5.02194,0.838009 -11.06099,0.731167 -15.56002,-1.880865 -0.14366,-0.08454 -0.0401,-0.276658 0.10775,-0.25362 1.27605,0.209237 2.53943,0.456516 3.80281,0.676321 -0.2472,-0.226145 -0.35706,-0.631938 -0.0718,-0.957417 1.13471,-1.300827 2.03199,-2.787713 2.60569,-4.414685 l 0.10972,-0.318157 c 0.26422,-0.754659 0.71051,-1.926609 0.25501,-2.607354 -0.43521,-0.648845 -1.45986,-0.560078 -2.07253,-0.285323 -1.27395,0.574873 -2.12113,2.010153 -3.19437,2.876478 -1.17042,0.946849 -2.50141,1.648532 -3.86408,2.276242 l -0.28775,0.130789 c -2.35696,1.060621 -4.87522,1.953457 -6.72845,3.825689 -0.99718,1.006027 -1.85493,2.263561 -2.14225,3.673268 -0.13099,0.646732 -0.13099,1.312485 0.0422,1.952877 0.13732,0.5009 0.42465,0.809683 0.25986,1.318825 -0.21549,0.6573 -0.97817,1.443523 -1.37113,2.028963 -0.45634,0.676533 -0.91056,1.354756 -1.36479,2.03319 -0.90633,1.356869 -1.80845,2.717965 -2.71056,4.076947 -1.80423,2.722192 -3.58944,5.457065 -5.35986,8.200392 -0.57606,0.893307 -1.15023,1.787554 -1.72253,2.682739 l -0.85698,1.343526 -0.45291,0.708288 -0.77247,1.21481 c 0.0275,0.112226 0.0254,0.230583 -0.0106,0.333933 -0.13169,0.375264 -0.37833,0.631761 -0.68475,0.817742 l -0.0547,0.03203 c -4.50845,7.128845 -8.94507,14.304186 -13.42605,21.450156 -0.23874,2.18085 -0.46268,4.3641 -0.65705,6.54735 -0.44155,4.94137 -0.74366,9.89563 -0.84084,14.85581 -0.0465,2.40115 0.14577,4.81668 0.24929,7.2155 0.0507,1.14492 0.12004,2.28844 0.21066,3.43162 l 0.0667,0.81029 c 0.0893,1.11353 0.13987,2.2188 -0.26041,3.28026 -0.35493,0.93184 -1.43662,1.14108 -2.07677,0.43116 -8.35138,-0.33618 -16.70913,-0.59191 -25.06687,-0.75042 -14.95986,-0.28744 -29.926061,-0.24306 -44.888033,0.0465 -7.514789,0.14583 -15.03169,0.35084 -22.544367,0.60446 -3.701408,0.12259 -7.404929,0.29589 -11.10845,0.34662 -1.995338,0.0272 -5.135737,-0.69961 -5.296742,-2.94534 l -0.004,-0.0686 c -0.249295,0.0676 -0.507042,0.12258 -0.771126,0.16274 -0.117569,0.0181 -0.230492,0.013 -0.334791,-0.0114 l -0.05183,-0.0138 c -2.974377,0.90691 -6.736805,-0.38711 -9.563115,-1.14121 l -0.233322,-0.0615 c -2.697887,-0.70379 -4.865493,-1.70982 -6.633802,-3.94591 -3.095071,-3.91611 -4.151409,-9.17471 -4.700705,-14.02098 -0.515493,-4.56094 -0.54507,-9.2062 0.0824,-13.75869 -0.36974,-3.70917 -0.0085,-7.53673 0.41195,-11.225001 0.207043,-1.823953 0.45,-3.645792 0.74155,-5.459178 0.162676,-1.012368 0.376056,-2.014168 0.593662,-3.013855 0.08688,-0.399452 0.15921,-0.829487 0.269345,-1.245222 l 0.04965,-0.177165 c -0.338028,0.04438 -0.707747,-0.02959 -1.064789,-0.225934 -0.849296,-0.467084 -1.096479,-1.412031 -1.111268,-2.316399 -0.04648,-2.72663 0.278874,-5.531037 0.566198,-8.240548 0.289436,-2.705284 0.686619,-5.421346 1.206338,-8.092814 L 13.66911,67.836935 C 14.062915,65.838564 14.51352,63.77558 15.307158,61.897769 12.326366,61.390666 9.353831,60.851723 6.4615775,59.934251 5.0503099,59.484075 3.660169,58.924208 2.3334084,58.241335 Z M 157.92346,86.615197 c -0.0464,0.01061 -0.0908,0.02329 -0.13519,0.03597 -1.19155,0.333933 -2.39577,0.617142 -3.59577,0.921487 -2.07465,0.522035 -4.10282,1.105362 -6.03169,2.012055 -0.40407,5.102043 -1.00309,10.187453 -1.57251,15.275481 l -0.11343,1.01768 c 0.87465,-1.62338 1.77043,-3.23387 2.70634,-4.82512 2.85,-4.850706 5.76549,-9.663152 8.74225,-14.437555 z M 14.665035,87.120472 c 0.0064,0.606364 -0.120401,1.236399 -0.188007,1.819515 -0.109859,0.94706 -0.198591,1.898137 -0.310563,2.844775 -0.228169,1.902152 -0.422535,3.806418 -0.564085,5.717025 -0.09084,1.219703 -0.15,2.443421 -0.202817,3.667143 1.197909,-4.478749 2.784528,-8.859829 4.292979,-13.247673 -0.252141,-0.02662 -0.509897,-0.08818 -0.775784,-0.158837 l -0.447603,-0.120607 c -0.263928,-0.06799 -1.12011,-0.278661 -1.80412,-0.521341 z m 147.031755,-4.170026 0.008,0.200783 c 0.0317,0.71225 -0.39507,1.113816 -0.91268,1.217378 0.3,-0.473425 0.60212,-0.94685 0.90423,-1.418161 z M 24.626303,49.193662 c 1.261267,0.111804 2.497183,0.38043 3.676056,0.845401 l 0.11375,0.04442 c 0.871949,0.336684 2.146813,0.759726 2.432025,1.690769 0.08028,0.264188 -0.135212,0.481667 -0.382395,0.503014 -0.946478,0.07609 -2.061971,-0.938607 -2.938732,-1.280995 -0.976056,-0.38043 -1.998592,-0.663639 -3.033803,-0.813698 -2.326056,-0.340274 -4.751408,-0.08221 -6.940141,0.765299 -0.128873,0.05072 -0.209154,-0.154497 -0.09296,-0.215788 2.205633,-1.20047 4.65845,-1.760337 7.166197,-1.538419 z m -26.7274016,6.044491 c -0.1458592,-0.128987 -0.2916338,-0.264251 -0.4352958,-0.399304 -1.1326961,-1.071999 -2.1357376,-2.32303 -2.8784172,-3.69776 l -0.195461,-0.372071 c -0.6048915,-1.171558 -1.3476728,-2.840694 0.073878,-3.684822 0.8492958,-0.504916 1.871831,-0.378317 2.8183099,-0.07186 0.061268,0.01902 0.1225352,0.04037 0.1838028,0.06129 0.4225352,0.148157 0.8302817,0.32548 1.193662,0.49456 1.578169,0.724931 2.9704225,1.779569 4.428169,2.709722 1.5795134,1.008128 3.1391611,1.652769 4.9621203,2.030088 l 0.1716825,0.03459 c 1.7112676,0.338372 3.5661971,0.555851 4.7598591,1.963444 0.3,0.35528 0.02535,1.020822 -0.492253,0.845401 C 9.1889578,54.037832 5.6967042,53.792454 2.6671268,51.964274 1.4121972,51.20764 0.22487324,50.339202 -1.0575211,49.622513 -1.7378028,49.2418 -2.440169,48.908957 -3.1886673,48.680687 l -0.4089084,-0.120613 c -0.2395164,-0.06996 -0.5254384,-0.139029 -0.7176919,-0.07019 -0.36597,0.126811 -0.2491683,0.3227 -0.1359407,0.664672 l 0.011293,0.03469 c 0.8894366,2.751992 3.4246479,5.055499 5.7739437,6.579334 0.5387324,0.350842 1.0901408,0.672306 1.6521127,0.97031 3.8039767,2.028345 8.0603239,2.972372 12.2407269,4.093002 1.611388,0.449984 2.683984,0.759516 3.217787,0.928596 0.891549,-0.07418 1.907746,0.240939 2.579577,0.617143 0.652817,0.365424 1.178874,0.855968 1.576057,1.432955 0,0 0.382394,0.319139 0.452112,0.813698 0.200705,0.458631 0.335916,0.952979 0.403521,1.468885 0.03803,0.302231 -0.03803,0.534505 -0.18169,0.699358 0.432118,6.634872 -1.359326,13.232395 -3.379016,19.537908 l -0.200121,0.621766 -0.128609,0.394142 c -2.178169,6.685052 -4.677465,13.321657 -5.792958,20.291787 -0.745775,4.65604 -0.722535,9.47483 -0.175352,14.15201 l 0.03858,0.32259 c 0.539136,4.42221 1.576461,9.38298 4.387477,12.94197 1.433791,1.81629 3.132507,2.62343 5.304308,3.20831 l 0.118932,0.0317 c 1.964789,0.51759 3.992958,1.25119 6.019014,1.47311 1.880282,0.2048 3.456338,-0.49456 5.148591,-1.14996 l 0.0021,-0.002 c 3.564105,-3.15548 5.182415,-7.75024 6.37819,-12.38748 3.099296,-12.00025 2.714789,-24.45724 0.957042,-36.63313 C 41.035479,83.233656 39.789,76.926963 38.546746,70.622384 37.92562,67.471151 37.255901,64.326258 36.700268,61.164458 l -0.329999,-1.86084 C 36.188175,58.269818 36.012063,57.235192 35.861535,56.195613 35.658718,54.798587 35.597451,53.42481 35.527732,52.019331 33.82069,49.189329 31.342521,46.858135 28.471394,45.186355 26.415761,43.987998 24.239704,43.157392 21.99393,42.555043 15.573486,40.824084 8.5741901,40.946668 2.1136268,39.615161 -0.05673454,39.168385 -2.1169172,38.505032 -4.1760073,37.710188 l -0.2807885,-0.109195 c -0.9443662,-0.36775 -1.9077465,-0.57276 -2.3767605,0.541056 -0.3338028,0.792564 -0.1352113,1.61683 0.3654929,2.282584 1.2274648,1.631624 3.6950704,2.388258 5.5521127,2.975812 1.11760563,0.355068 2.2584507,0.636164 3.4119718,0.845401 1.1535212,0.209237 2.3112676,0.262074 3.4183099,0.66998 0.4267605,0.156399 0.5112676,0.834834 0,0.955092 -1.4028169,0.327805 -2.8140845,0.04671 -4.2084507,-0.225933 -1.53169016,-0.302443 -3.0401409,-0.731272 -4.5063381,-1.274443 -0.2704225,-0.09976 -0.5503098,-0.204925 -0.8353352,-0.316694 l -0.2146648,-0.08496 c 0.221831,0.160838 0.443662,0.319351 0.6676057,0.477863 0.059155,0.04206 0.023239,0.154075 -0.05493,0.126599 -3.4474717,-1.286603 -6.5842591,-3.608068 -9.0142999,-6.354782 l -0.120911,-0.137687 c -0.855634,-0.980877 -2.805634,-3.948235 -4.449296,-3.121856 -1.543436,0.775064 1.087586,3.762834 2.087453,4.984365 l 0.116111,0.143163 c 1.136619,0.02959 2.237324,0.737401 3.15845,1.308047 1.5992957,0.991444 3.2704225,1.845299 4.9732394,2.643992 3.384507,1.591467 6.978169,2.713949 10.3267606,4.385518 0.044366,0.02346 0.010563,0.08031 -0.03169,0.07418 -2.1316901,-0.340485 -4.24014083,-0.883655 -6.3,-1.557651 l -0.091901,-0.02882 -0.091901,-0.03057 c -1.2866197,-0.4227 -2.556338,-0.900141 -3.8049296,-1.409706 -1.3880281,-0.566208 -2.7443662,-1.202372 -4.0605634,-1.923077 -1.191549,-0.650959 -2.514084,-1.823953 -3.895774,-1.99726 -0.147887,-0.01902 -0.278873,-0.02135 -0.392958,-0.01057 -1.586598,0.133045 -0.274627,2.762242 0.169035,3.548465 0.724648,1.291351 1.599296,2.483366 2.602817,3.57182 2.034507,2.210724 4.4999998,3.962818 7.1683096,5.326028 0.9105634,0.46497 1.8422535,0.87499 2.7887324,1.251193 z" />
            </g>
            <g
               fill-rule="evenodd"
               transform="translate(78.591549,38.043053)"
               id="head/hat-beanie">
              <path
                 fill="#ffffff"
                 id="Path"
                 d="m 51.718537,12.407562 c 9.458775,0 20.807594,4.587268 21.7725,4.679013 l 0.02605,0.0014 c 0.507662,0 2.49131,1.511835 5.950944,4.535505 l -3.747175,7.311453 0.303244,0.289672 c 1.451113,1.391814 2.689929,2.660411 3.66777,3.660448 7.984151,8.165377 9.419167,40.225004 7.53757,51.405254 -1.881598,11.180251 -5.366683,22.120333 -21.591717,22.120333 -16.225034,0 -34.275753,-9.75959 -37.056353,-12.798843 -1.853734,-2.026168 -3.93596,-2.996878 -6.24668,-2.91213 -0.09497,-0.119881 -0.189173,-0.239411 -0.282611,-0.35859 L 21.7121,90.292892 C 18.514111,89.829551 16.222677,89.2059 14.837883,88.422148 12.132992,86.891258 9.1599888,78.843192 9.1599888,77.070306 c 0,-1.755158 -4.4393184,-14.523325 -4.5281048,-15.874491 l -0.00135,-0.03743 c 0,-1.129527 -5.7995232,-6.321886 -5.7995232,-7.970878 0,-1.648991 -1.168989,-1.548946 0,-7.359736 l 0.33962447,-1.70704 C 0.41462332,37.933954 2.8494475,27.689542 12.132992,23.238036 22.334689,18.346271 42.164219,12.407562 51.718537,12.407562 Z" />
              <path
                 fill="#000000"
                 id="path10"
                 d="M 10.558289,23.008227 C 15.646192,17.605733 44.53106,9.2493597 59.144717,11.020712 l 0.438431,0.05679 c 1.166197,0.147945 2.315493,0.371977 3.449789,0.676321 3.666338,0.856603 7.453521,2.153659 10.482887,4.320211 2.529085,1.772384 10.507183,4.666826 8.155775,9.303429 0.871901,1.652548 1.197253,3.694192 0.608028,5.3218 -0.07416,0.562192 -0.247395,1.08 -0.469014,1.61683 1.862746,2.749879 3.337605,5.859687 4.531478,8.817534 2.086268,7.443969 3.384508,15.190802 3.574648,22.785675 0.632536,14.429308 -0.949014,31.665135 -13.511408,40.995828 -7.588944,5.91253 -19.476549,6.1112 -28.004789,-1.2197 -0.484014,-0.57297 -2.76,-2.11921 -2.000493,-2.39037 0.226057,0.23882 0.458451,0.47131 0.695071,0.69957 -0.01078,-0.0254 -0.01289,-0.0507 -0.0085,-0.0782 l -0.222555,-0.20163 c -0.419097,-0.38786 -0.962036,-0.95042 -0.343642,-0.84033 0.02725,0.0317 0.05704,0.0592 0.08641,0.0909 0.130973,0.0786 0.229919,0.14674 0.306907,0.20681 l 0.0396,0.0317 -0.01224,-0.0127 c -0.356216,-0.37999 -0.569775,-0.76757 -0.03717,-0.52004 l 0.0705,0.0343 c 0.236831,0.24939 0.477465,0.48822 0.722535,0.7207 -0.004,-0.0275 0,-0.0549 0.015,-0.0845 l -0.228496,-0.22082 c -0.223049,-0.21865 -0.189006,-0.21959 -0.07995,-0.39632 -0.474084,-0.6647 0.410916,-0.26989 0.473029,-0.0106 0.553732,-0.13103 1.039859,0.90881 1.396478,1.03562 15.633592,12.02372 38.320986,1.35497 37.953592,-32.14934 l -0.0056,-0.655526 C 87.113608,58.241358 86.212399,47.230146 81.782937,37.532219 81.352162,36.598051 80.870261,35.689245 80.34019,34.810027 79.974697,34.150615 79.583852,33.50811 79.16343,32.882513 c -1.176972,-0.09511 -2.338944,-0.310685 -3.483803,-0.644619 -0.393169,-0.09933 -0.781902,-0.209236 -1.170423,-0.33816 -5.678873,0.309839 -11.231197,0.646943 -16.925915,0.966505 l -1.778774,0.11083 c -4.824105,0.310258 -9.81315,0.807189 -13.706085,3.792176 -3.819719,2.717542 -3.837043,8.076328 -7.106831,11.05996 -4.662677,3.165816 -4.696691,6.020525 -5.594578,10.685871 0.06655,3.516869 2.504155,8.626685 -1.969014,10.106771 0.754648,1.076407 -0.297254,0.559233 -0.38007,0.181762 -0.0085,0.0021 -0.0169,0.0042 -0.02324,0.0042 0.672465,1.250559 -0.316056,0.463068 -0.403521,0.06129 -0.05282,-0.01479 -0.105634,-0.05284 -0.158451,-0.105675 0.677536,1.09564 -0.417676,0.328438 -0.352817,0.128924 -1.309225,-2.013112 -4.003732,-2.325699 -5.903028,-1.792251 -0.02324,0.07186 -0.107535,0.0782 -0.160352,0.04016 -8.076127,1.750826 -5.992394,18.476242 2.283803,16.859413 0.354296,-0.07228 0.345845,0.09785 0.416197,0.114129 -0.191197,-0.502168 0.347747,-0.297793 0.342042,-0.192329 l 0.03284,-0.0016 c 0.02602,-0.0023 0.01538,-0.0051 0.03477,0.0016 -0.184859,-1.026951 0.855423,0.460955 0.773239,0.522035 0.0319,-0.01902 0.06782,-0.02959 0.09951,-0.03382 l -0.03581,-0.09748 c -0.172646,-0.460118 -0.157845,-0.268874 -0.156654,-0.532339 -0.129719,-0.32569 -0.139226,-0.18324 -0.108803,-0.395436 0.455915,-0.353378 0.590493,0.718591 0.742606,0.797002 -0.260705,-0.363523 -0.05345,-0.66047 0.192464,-0.463068 1.864014,3.922238 4.271831,7.607553 7.383592,10.510661 0.340352,0.268415 0.684718,0.532603 1.041549,0.781996 1.323592,1.153339 3.353873,1.894967 4.592958,2.916634 0,0.01691 -0.0082,0.03804 -0.02092,0.05918 l 0.02836,0.02563 v 0 l 0.02868,0.02721 0.430986,0.207123 c 0.12676,0.107789 0.240845,0.228258 0.342042,0.361409 0.107958,0.124697 0.202817,0.262074 0.28331,0.407906 0.04014,0.177534 -0.04859,0.251507 -0.217606,0.175421 -0.07416,-0.02536 -0.147887,-0.05495 -0.221831,-0.08243 0.0042,0.0063 0.0061,0.01057 0.01056,0.01479 0.02424,0.03668 0.188356,0.417284 -7.49e-4,0.355356 l -0.02249,-0.0087 c -0.103732,-0.03804 -0.207042,-0.08031 -0.308451,-0.12047 0.120423,0.150059 0.230071,0.312799 0.327254,0.450177 0.103732,0.107788 0.166901,0.234593 0.192465,0.378313 -0.0044,0.0803 -0.04859,0.11413 -0.128874,0.10356 -0.122535,-0.0402 -0.242957,-0.0824 -0.363591,-0.12681 l 0.03431,0.0655 c 0.08523,0.16771 0.206361,0.449 -0.0087,0.35512 -0.184014,-0.0571 -0.361267,-0.12258 -0.538732,-0.19444 -0.015,0.0296 -0.04437,0.0401 -0.103521,0.0127 -0.564085,-0.20079 -1.109155,-0.445948 -1.630986,-0.735498 -0.458451,-0.333934 -0.921338,-0.661526 -1.38169,-0.993346 -0.43331,-0.259961 -0.85162,-0.549511 -1.250705,-0.874991 -2.67169,-1.726309 -5.010633,-3.91928 -6.866197,-6.361644 -3.10331,2.688588 -9.308028,0.120047 -13.146126,-1.984579 C 9.7527254,87.563061 8.4183592,84.08508 8.0733592,80.335303 7.3561056,75.28699 3.232162,73.55899 3.5190634,62.482121 c -0.00634,0.0021 -0.012887,0.0021 -0.021338,0.0021 -0.15,-0.04438 -0.2955634,-0.103562 -0.4328874,-0.179648 C 2.9232887,62.236955 2.7901901,62.156642 2.665331,62.059421 L 2.5111056,61.845957 v 0 c -0.08007,-0.04438 -0.1519014,-0.09088 -0.2068309,-0.137378 l -0.028487,0.03675 c -0.090175,0.10886 -0.029559,-0.05493 -0.02433,-0.08748 L 1.9835395,61.293361 C 1.3482854,60.425699 0.65134331,59.452151 0.08364085,58.673589 l -0.01788199,0.03164 C 0.0529165,58.729101 0.04612575,58.746354 0.05216197,58.753902 -1.2988944,56.812016 -2.5694578,54.46645 -2.9224859,52.195703 -3.3393169,50.446567 -3.1764296,48.644172 -2.812838,47.023961 -1.2538944,41.350262 3.8528662,28.511155 10.558289,23.008227 Z m 36.665025,78.464433 -0.08466,-0.0754 0.07444,0.0933 c 0.03901,0.0482 0.07895,0.0916 0.143999,0.13577 -0.0042,-0.0148 -0.0042,-0.0296 -0.0023,-0.0465 -0.04314,-0.0329 -0.08725,-0.069 -0.131454,-0.10715 z M 59.08012,13.871554 c -9.910141,-0.852376 -19.657395,1.331718 -29.114155,3.975499 l -0.652367,0.187577 c -5.377214,1.534942 -11.063053,2.916143 -15.607211,6.201542 -6.3488025,4.86465 -9.6272532,12.603452 -12.4882391,19.748572 -2.4982394,5.308696 -1.22112677,11.294771 2.543662,15.001643 0.3916901,-3.683624 1.059507,-7.259459 2.103169,-10.806551 0.2178169,-0.554161 0.053028,-0.735711 0.5224648,-0.807993 0.709014,9.558951 -2.7830282,16.621433 4.1275353,27.950231 2.998521,5.345472 -0.472606,9.25672 7.995,12.069582 l 0.229149,0.08759 c 1.764102,0.665933 3.690622,1.191586 5.418456,0.81931 l -0.154797,-0.251895 c -0.15787,-0.259404 -0.205777,-0.385326 0.02381,-0.496285 -0.0061,-0.01268 -0.01458,-0.02536 -0.02324,-0.04016 -0.185704,-0.350841 -0.365281,-0.70591 -0.53662,-1.065205 -0.06951,0.02325 -0.139225,0.04016 -0.211267,0.05918 0.04669,0.08665 0.05282,0.173307 -0.07796,0.202896 -0.465549,0.159781 -0.943613,0.223825 -1.432989,0.19385 l -0.105039,-0.0079 c -0.552887,-0.03382 -0.901268,-0.13463 -1.212887,-0.228258 -0.10331,-0.01691 -0.206831,-0.03382 -0.308451,-0.05495 -1.002465,-0.222341 -2.063662,-0.787914 -2.750493,-1.348415 -7.829155,-4.448501 -7.02,-19.591538 2.630282,-21.023014 0.197957,-9.534434 4.731126,-25.619882 12.254366,-34.705197 6.800282,-8.357002 25.365211,-11.979124 38.281267,-10.701934 0.18824,0.06235 0.376479,0.125331 0.564719,0.188947 1.992676,0.177112 3.89176,1.065206 5.885915,1.477762 C 75.552444,19.424571 73.928218,18.709573 72.25519,18.101941 68.92181,16.0622 65.100401,14.958528 61.4085,14.180125 60.643711,13.992024 59.868359,13.888462 59.08012,13.871554 Z M 19.556239,71.897756 c 0.518874,-0.281942 0.459507,-0.0097 0.578874,-0.08877 3.732253,-0.304556 7.75669,2.964399 9.842957,5.68955 -0.164788,0.171193 -0.610563,-0.336047 -0.688732,-0.416361 -0.01056,0.01057 -0.02324,0.01902 -0.03592,0.02325 l 0.05809,0.08202 c 0.845585,1.21394 -0.830695,-0.21453 -0.987671,-0.50895 -0.02746,0.01479 -0.05493,0.02325 -0.08662,0.01691 0.132888,0.130404 0.538733,0.470466 0.608451,0.712251 l 0.107598,0.08958 c 1.014592,0.869173 0.930388,1.523007 -0.221471,0.28874 0.02725,0.05707 0.03782,0.109902 0.0188,0.152172 l 0.03966,0.02644 c 0.566418,0.395972 1.032243,1.499787 -0.151633,0.366671 0.123169,0.827647 -1.173169,-0.772063 -1.214789,-0.760861 -2.243239,-1.761605 -5.545986,-3.474811 -8.359859,-3.704971 l -0.09685,-0.01113 c -0.516349,-0.06637 -0.760477,-0.219633 -0.579209,-0.557401 -0.635916,-0.151327 -0.486972,-0.464548 -0.185916,-0.454403 -0.448521,-0.295045 -0.04479,-0.577198 0.215493,-0.467085 -0.178944,-0.495616 0.538732,-0.165487 0.604225,-0.234598 0.372465,-0.574662 0.472817,-0.09532 0.534507,-0.243053 z M 11.733021,41.177991 c 1.792606,-0.656877 7.087606,1.309526 6.664014,3.913784 -0.252253,0.59791 -1.08338,0.940509 -1.667535,0.602983 l -0.762429,-0.512262 c -1.326824,-0.888932 -2.523472,-1.668406 -3.947993,-2.443683 -0.775353,-0.384869 -1.109155,-1.20195 -0.286057,-1.560822 z m 10.198923,-3.870078 -0.692312,-0.450706 c -3.736042,-2.446084 -9.017569,-6.152486 0.349002,-2.317771 1.067535,0.457996 2.485986,0.728947 3.06845,1.745964 0.915,1.874466 -1.493028,2.000431 -2.72514,1.022513 z m 0.419831,-10.975209 c -0.299789,-1.138122 3.430563,0.197401 4.516479,0.54951 l 0.165399,0.06249 c 1.056341,0.393762 2.26722,0.759046 2.899037,1.671002 0.740282,1.26007 -0.758028,1.521088 -1.686127,0.951921 -1.902887,-1.244008 -3.989155,-2.182614 -5.894788,-3.234927 z m 9.485979,-5.301701 c -2.099707,-2.293863 3.519703,-0.09642 4.36146,0.513554 l 0.02403,0.01799 c 0.628098,0.442356 0.500704,1.395123 -0.08937,1.674951 -1.678943,0.03191 -2.914436,-1.368071 -4.296126,-2.206497 z m 9.554788,-2.513209 c -3.338028,-2.399882 1.059085,-1.25838 2.586338,-0.317871 1.040916,0.918317 -0.03127,2.468572 -2.586338,0.317871 z" />
            </g>
            <g
               fill-rule="evenodd"
               fill="#000000"
               transform="translate(112.1831,77.354207)"
               id="face/Tired">
              <path
                 id="path13"
                 d="m 39.942127,48.422698 c 1.335211,-0.311319 2.383943,0.819828 2.121549,2.12238 -0.277817,1.378849 -1.759859,1.851428 -3.002535,1.808102 -1.408944,-0.04882 -2.816831,-0.339852 -4.232747,-0.398396 -1.454577,-0.06002 -2.914648,-0.07101 -4.37007,-0.0317 -1.346197,0.03635 -2.727887,0.273698 -4.063521,0.06066 -0.520141,-0.08306 -0.470916,-0.769949 -0.132465,-1.014058 1.004789,-0.724932 2.307042,-1.0204 3.491408,-1.324533 1.207606,-0.310262 2.442043,-0.54782 3.680493,-0.692806 1.255564,-0.146888 2.521479,-0.220227 3.785282,-0.234599 0.575282,-0.0066 1.280704,0.121315 1.84162,0.01775 0.285845,-0.05305 0.576972,-0.241785 0.880986,-0.3128 z M 36.087529,30.51204 c 1.595362,0.970108 4.026203,3.232209 2.309961,5.637224 -2.020181,2.120581 -4.928786,-0.31081 -6.362095,-1.410433 -1.329032,-0.852215 -2.822274,1.339617 -1.589198,2.334721 10.357127,7.671008 14.560269,-6.307842 6.448244,-7.70212 -0.893164,-0.153644 -1.224887,0.840495 -0.806912,1.140608 z M 24.51957,23.267871 c 2.134014,-0.355069 2.507324,2.688376 0.392324,2.900994 -0.443873,0.0446 -0.885211,0.08348 -1.325704,0.12216 0.04289,0.137801 0.07141,0.279617 0.08704,0.425449 0.02007,0.123851 0.03507,0.255311 0.04838,0.405581 0.06697,0.748814 -0.463733,1.527428 -1.083803,1.890528 -0.644366,0.37726 -1.569296,0.427562 -2.209226,0 -0.33,-0.22065 -0.659577,-0.469409 -0.841478,-0.834199 -0.244015,-0.374725 -0.377113,-0.808415 -0.390634,-1.253519 -0.972888,0.252775 -1.963521,0.594528 -2.946127,0.775655 0.03613,0.03551 0.07162,0.07334 0.106056,0.114975 0.0262,0.03191 -0.0097,0.09173 -0.04796,0.06235 L 15.81555,27.768577 v 0 c -0.15169,0.01987 -0.30338,0.03614 -0.454647,0.04565 l 0.0036,-0.01331 v 0 c -0.252887,-0.0044 -0.45993,-0.303499 -0.233662,-0.542748 0.868126,-0.91795 2.222733,-1.528003 3.45774,-2.038079 l 1.18992,-0.488009 c 1.521534,-0.618644 3.127703,-1.195758 4.741072,-1.464205 z m 17.167669,0.941523 c 1.397747,-0.159569 2.781761,-0.09616 4.181831,-0.01078 2.356268,0.143507 1.367958,3.580908 -0.523309,2.787288 0.01944,0.125753 0.02451,0.251718 0.0099,0.369017 -0.07394,0.604251 -0.270845,1.114873 -0.825211,1.439507 -0.514859,0.301386 -1.167465,0.30054 -1.682324,0 -0.551409,-0.321675 -0.80007,-0.775021 -0.940775,-1.364054 -0.109014,-0.456728 -0.06528,-0.83885 -0.0023,-1.291139 0.02092,-0.149848 0.0862,-0.28955 0.17662,-0.415092 -0.131831,-0.03297 -0.263873,-0.06489 -0.396127,-0.09469 -1.175915,-0.26757 -2.335986,-0.213887 -3.508521,-0.38339 -0.12507,-0.01818 -0.144929,-0.220227 -0.03549,-0.271585 1.053592,-0.495194 2.393028,-0.633628 3.545704,-0.765088 z M 24.30412,13.593079 c 0.806619,-0.307938 1.819859,0.204164 2.231619,0.908593 0.467324,0.799328 0.267676,1.722084 -0.309084,2.395657 -0.88475,1.033264 -2.569677,1.669789 -3.811504,2.25939 l -0.09969,0.04771 c -1.275212,0.615452 -2.585282,1.180603 -3.913099,1.673049 -1.305845,0.484626 -2.664296,0.864211 -4.018098,1.190113 -0.713874,0.171828 -1.442958,0.313856 -2.172465,0.403468 -0.575916,0.07059 -1.02,-0.0875 -1.570986,-0.0875 -0.08049,2.11e-4 -0.105634,-0.106521 -0.03993,-0.147522 0.514859,-0.323789 0.897043,-0.750083 1.458592,-1.049989 0.584789,-0.312164 1.17169,-0.619045 1.760704,-0.922966 1.190915,-0.614184 2.337676,-1.297691 3.486549,-1.985636 1.210986,-0.725143 2.394507,-1.488752 3.545493,-2.306255 1.126268,-0.799961 2.164226,-1.886724 3.451902,-2.378113 z m 14.373971,-0.657701 c 1.007324,-0.195499 2.00493,0.281307 2.303029,1.308258 0.285845,0.983836 -0.0131,1.194763 0.749366,1.898771 0.607801,0.561054 1.263105,1.061829 1.924468,1.554947 l 0.973415,0.723921 c 1.763108,1.305619 3.540793,2.540074 5.568032,3.421038 0.171338,0.07439 0.07225,0.329072 -0.09021,0.332454 -3.222676,0.06214 -6.312887,-0.374301 -9.221831,-1.817612 -1.358873,-0.674208 -2.724084,-1.527006 -3.511479,-2.872885 -0.912042,-1.558497 -0.885422,-4.124078 1.305211,-4.548892 z" />
            </g>
            <g
               transform="translate(104.57745,109.47938)"
               id="facial-hair/*-None-3" />
            <g
               transform="translate(88.521127,88.978474)"
               id="accessories/*-None-0" />
          </g>
        </g>
      </g>
    </g>
    <text
       xml:space="preserve"
       style="font-style:normal;font-weight:normal;font-size:40px;line-height:0;font-family:sans-serif;white-space:pre;inline-size:222.232;fill:#474559;fill-opacity:1;stroke:none;"
       x="-297.31766"
       y="36.592941"
       id="text65"
       transform="matrix(0.70725363,0,0,0.72515532,223.35011,57.44498)"><tspan
         x="-297.31766"
         y="36.592941"><tspan
           dx="0 0 0 0.45999864"
           style="font-size:29.3333px;line-height:1.15;letter-spacing:0.19px;word-spacing:-0.46px;fill:#474559;fill-opacity:1">How </tspan></tspan><tspan
         x="-297.31766"
         y="70.326236"><tspan
           dx="0 0 0 0 0 0 0 0 0 0 0.45999864"
           style="font-size:29.3333px;line-height:1.15;letter-spacing:0.19px;word-spacing:-0.46px;fill:#474559;fill-opacity:1">programmig </tspan></tspan><tspan
         x="-297.31766"
         y="104.05953"><tspan
           style="font-size:29.3333px;line-height:1.15;letter-spacing:0.19px;word-spacing:-0.46px;fill:#474559;fill-opacity:1">works??</tspan></tspan></text>
    <text
       transform="scale(0.9875795,1.0125767)"
       xml:space="preserve"
       style="font-style:normal;font-weight:normal;font-size:28.6459px;line-height:1.25;font-family:sans-serif;fill:#474559;fill-opacity:1;stroke:none;stroke-width:0.716148;"
       x="273.11151"
       y="82.937477"
       id="text75"><tspan
         style="fill:#474559;stroke-width:0.716148;fill-opacity:1;"
         sodipodi:role="line"
         id="tspan73"
         x="273.11151"
         y="82.937477">It's MAGIC!!</tspan></text>
    <g
       transform="matrix(-1,0,0,1,531.19164,143.62204)"
       id="Introduction"
       stroke="none"
       stroke-width="1"
       fill="none"
       fill-rule="evenodd">
      <g
         id="variations"
         transform="matrix(0.80762552,0,0,0.83780377,-1174.6258,-998.62881)">
        <g
           id="images"
           transform="translate(126,110)">
          <g
             id="a-person/bust"
             transform="translate(1440,972)">
            <g
               id="body/Macbook"
               transform="translate(31.056338,135.05284)"
               fill-rule="evenodd">
              <path
                 d="m 210.43977,44.271905 c -3.01677,0.296313 -6.03355,0.592204 -9.05033,0.888517 -14.44817,1.104305 -28.89063,3.41056 -43.22819,4.794693 -0.35698,-0.581214 -1.05572,-0.485472 -1.47995,-0.08158 -1.43067,-0.12533 -3.03412,-1.219279 -4.33007,-0.08137 -0.0421,-0.0059 -0.0842,-0.01289 -0.12668,-0.01691 -2.30747,-4.430537 -3.90246,-9.156118 -5.4505,-13.88804 -0.98804,-2.909236 -2.31741,-5.725479 -4.77397,-7.678778 -4.1924,-2.911351 -13.79829,-8.814999 -18.72114,-8.566873 -0.0816,-0.881754 -0.49254,-1.79056 -1.16717,-2.377691 1.48692,-2.535992 -4.45844,-4.190654 -4.87781,-3.896665 C 117.50275,4.894597 113.51887,-2.4633521 104.73438,-4.1505615 96.864534,-5.7910624 85.671056,-6.0666632 81.438475,2.1609924 80.973217,2.1085774 76.217355,2.0838074 75.757172,2.1353764 75.041732,1.228895 67.184792,9.8186108 70.405014,12.809006 41.615047,25.549625 25.245011,24.029407 17.276406,59.84673 c -1.077284,3.364697 -1.155743,7.04663 -2.2933,10.336298 -4.047112,9.45391 -7.3297198,19.520735 -8.1466709,29.807577 -1.9731178,0.505765 -2.200037,3.986065 0.085438,4.489505 0.8729936,0.19254 1.603026,0.45546 2.2395839,0.95403 -0.4976148,8.42992 1.540428,27.68689 2.824541,27.6275 2.618346,8.33629 14.297555,10.689 22.566039,7.75948 -1.425382,2.68267 0,4.3694 0,5.80276 29.752206,1.12608 62.283101,0.47755 92.027063,2.02189 3.80475,-0.0541 7.80661,0.9348 11.55934,0.36563 2.28864,-0.54887 2.29245,-4.1488 -0.029,-4.59391 l 10.14355,-2.20398 c -0.22671,-0.0856 4.18123,-3.01867 7.51269,-8.49962 3.10094,-6.13127 0.99047,-13.53229 2.39555,-20.20166 10.97417,-0.89782 22.12979,-1.28169 32.98384,-3.14094 1.47995,4.42969 7.88634,-0.86802 9.92269,-2.99906 -0.003,-0.003 -0.005,-0.007 -0.008,-0.01 0.9855,-0.26968 1.7758,-1.1937 1.80224,-2.28765 0.69112,-0.98785 0.8362,-2.38023 0.17341,-3.3349 3.03772,-17.535311 7.66873,-35.439217 9.3426,-53.139382 0.59172,-0.131037 1.14898,-0.390575 1.62143,-0.79045 l -0.0383,-0.03825 c 0.80045,-0.892744 0.9561,-2.433699 -0.37834,-3.192235 -1.07644,-0.612493 -1.97523,-0.422489 -3.14346,-0.307515 z"
                 id="ðŸŽ¨-Background"
                 fill="#ffffff" />
              <path
                 d="m 81.986937,0.25013307 c 0.896408,-2.25362817 3.926619,-1.37758117 3.588802,0.98996473 -0.202183,1.4181605 -0.978591,2.916 -1.675985,4.1589511 -0.567888,1.0117339 -1.215634,1.9991625 -2.093874,2.7574873 1.563381,1.4591624 3.186127,2.8650648 4.850071,4.1999528 1.815634,1.456415 3.724859,2.798912 5.69831,4.032775 1.730493,1.082114 3.539155,2.040799 5.170352,3.275507 1.51669,1.147843 2.898377,2.528384 3.601477,4.330568 0.74899,1.919133 0.42349,3.90107 -0.12805,5.818908 l -0.0634,0.216833 c -0.56345,1.900039 -1.53887,4.190442 -0.18633,5.980579 0.68852,0.911343 1.6895,1.556807 2.5538,2.285331 0.76817,0.647577 1.48922,1.351797 2.15049,2.108219 1.4419,1.648955 2.61465,3.5044 3.35472,5.571828 l 0.0662,0.187824 c 0.63433,1.830169 1.09792,4.072188 0.24079,5.869053 -0.24591,0.515061 -1.03901,0.347671 -1.17676,-0.153863 -0.31141,-1.136219 -0.29514,-2.326121 -0.55627,-3.478403 -0.27169,-1.198356 -0.7238,-2.335844 -1.31429,-3.412039 -1.14251,-2.081962 -2.6898,-3.860359 -4.51786,-5.36387 l -0.54723,-0.44519 C 99.575824,38.009748 98.265557,36.767681 97.976091,34.83 c -0.309718,-2.073135 0.520564,-4.047992 1.054437,-6.010168 0.372042,-1.367437 0.493521,-2.678231 0.09148,-3.913996 -0.491197,0.802074 -1.161338,1.563358 -1.691408,2.242426 -1.055705,1.352853 -2.121338,2.697464 -3.184226,4.044611 -1.089718,1.381385 -2.152605,2.78454 -3.164788,4.224047 -0.452747,0.643984 -0.900634,1.291773 -1.347043,1.940195 -0.335704,0.487374 -0.803873,0.974325 -1.169789,1.471421 0.08894,0.265879 0.08218,0.572337 -0.07901,0.790028 -1.940492,2.622857 -4.701126,-2.849848 -5.421126,-4.232501 -1.466197,-2.81582 -2.557395,-5.807272 -4.028451,-8.622458 -1.524296,-2.918325 -3.26007,-5.758873 -5.194648,-8.423155 -1.170211,-1.611546 -2.481761,-3.125237 -3.552253,-4.787929 -2.521902,2.287655 -5.840493,3.821213 -8.888662,5.211898 -3.349095,1.52776 -6.828495,2.775829 -10.26227,4.101136 l -1.014315,0.394113 c -5.916496,2.309932 -11.977577,4.84767 -16.895317,8.950645 -5.778803,4.821534 -9.197535,11.541628 -11.742676,18.500548 -2.929859,8.011233 -5.353732,16.238677 -7.613239,24.460838 -1.156268,4.206927 -2.253381,8.432876 -3.284789,12.672352 -0.9088733,3.734982 -1.6622536,7.507162 -2.7143662,11.203679 2.1338032,-0.07545 4.5673942,0.750928 6.3891552,0.98954 8.302605,1.08719 16.49345,2.82026 24.332112,5.8208 0.96824,0.37071 1.248381,1.33806 1.037536,2.12217 0.55838,-0.15767 1.116338,-0.31745 1.674718,-0.47427 -0.611759,-0.93772 -0.319774,-2.61423 -0.271678,-3.65359 l 0.0029,-0.0715 c 0.04944,-1.38498 0.199648,-2.77144 0.297043,-4.153879 0.18546,-2.63531 0.426905,-5.251352 0.747931,-7.871563 l 0.08193,-0.655153 c 0.363803,-2.850693 0.632746,-5.718082 1.029718,-8.563914 l 0.0469,-0.325691 c -0.190353,-0.728102 -0.411972,-1.447327 -0.644578,-2.163381 -0.619859,-1.907437 -1.494718,-3.702858 -2.261408,-5.550271 -0.09042,-0.217479 0.219296,-0.342387 0.364014,-0.211984 1.29845,1.168556 2.329859,2.650967 3.15845,4.201433 0.01437,-0.07313 0.02704,-0.146466 0.04204,-0.219593 l 0.09455,-0.465562 c 0.233159,-1.135384 0.516762,-2.329962 1.212985,-3.250822 0.07415,-0.09785 0.220775,-0.118356 0.290915,0 0.666339,1.127977 0.740916,2.556493 0.843381,3.840024 0.115986,1.451976 0.130563,2.92234 0.11007,4.378332 -0.03993,2.845409 -0.240422,5.69885 -0.400141,8.539609 -0.156686,2.791614 -0.464397,5.547657 -0.860957,8.311827 l -0.07538,0.518388 c -0.193855,1.31567 -0.352561,2.64769 -0.608254,3.95436 l -0.07224,0.35571 c -0.13669,0.648 -0.220774,1.56166 -0.492887,2.32062 7.000986,-1.95351 14.012746,-3.86242 21.037817,-5.73773 5.077394,-1.355606 10.16007,-2.690917 15.240634,-4.034682 0.268098,-0.483358 0.601901,-0.934802 1.018521,-1.33827 1.372605,-1.329816 3.191619,-1.923076 4.86,-0.899507 0.135634,0.08348 0.147042,0.296102 0,0.376626 -0.319648,0.174787 -0.63993,0.354012 -0.954507,0.540846 l 3.050704,-0.826591 c 2.280211,-0.6182 4.587676,-1.390685 6.921549,-1.821628 4.298662,-2.122169 8.922045,-3.658263 13.450355,-5.176392 l 0.53361,-0.180565 c 2.31861,-0.790783 4.71686,-1.676057 7.11238,-2.114488 1.75373,-0.320829 3.81232,0.06636 4.51753,1.863687 0.89282,0.588611 1.73282,1.28036 2.54345,1.960697 0.58606,0.491601 1.14782,1.01427 1.71909,1.523201 l 0.10531,0.09249 c 0.46702,0.405365 0.83698,0.676853 0.95166,1.322076 0.0592,0.333299 -0.15254,0.783898 -0.56345,0.739726 -1.25726,-0.13463 -2.27958,-1.592524 -3.13226,-2.463076 -0.65873,-0.67294 -1.32274,-1.368705 -1.92401,-2.10822 -0.35049,0.19085 -0.83092,0.156611 -1.05401,-0.266089 -1.1569,-2.191492 -4.32613,-0.67294 -6.07965,-0.15323 l -2.51196,0.743791 c -1.2559,0.372427 -2.51131,0.746694 -3.76459,1.127505 -3.44451,1.046395 -6.87211,2.217487 -10.347891,3.178497 0.310986,0.341965 0.268098,0.950231 -0.322606,1.18166 -2.720704,1.067953 -5.705493,1.620211 -8.532042,2.352962 -1.784578,0.463069 -3.568099,0.928885 -5.350986,1.397449 -0.305704,0.495405 -0.525634,1.055906 -0.618169,1.708344 -0.340236,2.398941 0.315958,5.166791 0.955152,7.487011 l 0.09629,0.34618 c 0.525439,1.86543 1.298474,4.1522 2.907295,5.33013 0.392747,0.28723 0.892817,0.48716 1.396902,0.53239 3.149366,-1.62169 6.298521,-3.24317 9.449577,-4.86169 0.583732,-0.29991 1.123099,0.1061 1.254085,0.58882 1.111056,-0.18239 2.219573,-0.46983 3.229223,-0.81264 1.69648,-0.57635 3.02113,-1.67558 4.61155,-2.43581 3.07734,-1.47059 6.21991,0.3358 8.97518,1.70913 l 0.63502,0.31223 c 1.23556,0.59971 3.80607,1.75182 4.39895,0.11159 0.57339,-1.58682 -1.2395,-3.2827 -2.41035,-3.99685 -1.39563,-0.85153 -3.0207,-1.3072 -4.59803,-1.68679 -0.90063,-0.21684 -1.81225,-0.39374 -2.72936,-0.52288 -1.04028,-0.14646 -2.11479,-0.12448 -3.11641,-0.46201 -0.49775,-0.16739 -0.57423,-0.95826 0,-1.08888 1.54185,-0.351027 3.3821,0.0319 4.99108,0.42316 l 0.84096,0.2073 c 1.62106,0.39798 3.25775,0.8974 4.7343,1.69123 1.07366,0.57741 2.2069,1.45451 2.94718,2.52817 0.64287,-0.59741 1.44299,-0.57721 2.27646,-0.35564 l 0.45238,0.1258 c 0.74702,0.2071 1.35252,0.34964 2.0794,0.20617 0.0972,-0.52901 0.19563,-1.05823 0.30106,-1.58745 1.03584,-5.202182 2.17183,-10.384491 3.42528,-15.539113 2.16208,-8.89103 4.66389,-17.684478 7.48435,-26.387814 l 0.28311,-0.870034 c 0.6505,-1.990708 1.17402,-4.159585 2.22275,-5.988399 0.9919,-1.729268 2.58105,-2.725362 4.46915,-3.252892 2.14268,-0.598544 4.39416,-0.911765 6.57993,-1.316079 0.48761,-0.09004 0.97648,-0.175632 1.46451,-0.264187 -0.41243,-0.74494 -0.72027,-1.590548 -0.99756,-2.23949 l -0.0486,-0.112416 c -0.59571,-1.358708 -1.13084,-2.741896 -1.64759,-4.132463 l -0.38656,-1.045397 c -0.93302,-2.51735 -1.89619,-4.993358 -3.20803,-7.347816 -1.38085,-2.47787 -3.21275,-4.503663 -5.49634,-6.180305 -4.65591,-3.418802 -10.26782,-5.162654 -14.78366,-8.816266 -0.18507,-0.149636 0.0522,-0.405581 0.24,-0.310896 3.04923,1.532712 6.34099,2.57488 9.51254,3.822692 l 0.62563,0.246949 c 2.50677,0.99412 5.05257,2.076344 7.22232,3.685858 2.41902,1.794786 4.32423,4.023687 5.7562,6.674231 1.41127,2.612712 2.31401,5.537166 3.30972,8.327835 l 0.26631,0.743586 c 0.40161,1.115022 0.81644,2.226712 1.29179,3.311804 0.37732,0.861463 1.08148,1.844876 1.40155,2.828923 0.8757,-0.151961 1.75119,-0.304344 2.62774,-0.45081 18.98599,-3.1711 38.18409,-5.034364 57.42486,-5.579436 0.75275,-0.02135 1.14211,0.697244 1.0312,1.354121 -1.84648,10.922795 -3.4874,21.882998 -5.28782,32.814035 -0.78591,4.77081 -1.58746,9.538028 -2.40781,14.30292 -0.41557,2.414043 -0.89599,4.818787 -1.28958,7.236423 -0.31775,1.952456 -0.54845,3.920126 -1.09395,5.827356 -0.48929,1.71003 -1.24014,3.35899 -2.47331,4.66365 -1.32929,1.40633 -3.18464,2.08709 -5.05225,2.40876 -4.74106,0.81624 -9.60401,1.14954 -14.38352,1.69334 l -25.44655,2.89613 c 0.37186,3.38132 0.39965,6.71002 0.22903,10.1307 l -0.0972,1.86735 c -0.0795,1.50199 -0.17453,3.00624 -0.39018,4.49277 -0.27042,1.86474 -1.1231,3.44374 -2.37908,4.83654 -1.15331,1.27909 -2.55444,2.37051 -3.91733,3.41627 -1.41465,1.08591 -2.87641,2.134 -4.53972,2.80546 l -0.21589,0.0857 c -1.45919,0.56994 -4.1965,1.4525 -6.19101,1.12997 0.26071,1.30678 0.76521,2.71183 0.31796,4.00487 -0.20747,0.60045 -0.99232,0.89993 -1.47317,0.3891 -0.95261,-1.01258 -1.02697,-2.35 -1.25261,-3.67094 -0.23471,-1.37463 -0.43711,-2.75411 -0.6169,-4.13697 -0.34774,-2.6738 -0.61838,-5.37211 -0.70098,-8.06851 -0.0849,-2.76911 -0.0522,-5.54203 0.097,-8.30818 0.0767,-1.42049 0.17176,-2.84013 0.35197,-4.25152 0.0769,-0.60193 0.15549,-1.20428 0.24528,-1.80472 0.0327,-0.21896 0.0691,-0.43687 0.10817,-0.65435 l -2.28397,0.25779 c -3.50212,0.39112 -7.00591,0.74432 -10.53279,0.79918 -0.41767,0.006 -0.73901,-0.18388 -0.94901,-0.46096 -0.22374,0.36458 -0.61331,0.62539 -1.17127,0.62327 -4.92528,-0.0184 -9.5119,-1.62951 -13.99162,-3.52828 -2.25803,-0.95741 -4.48098,-1.99388 -6.74239,-2.94305 -2.110777,-0.88598 -4.367326,-1.51813 -6.427185,-2.51613 l -5.412676,2.84013 c -0.03972,0.1397 -0.09063,0.2718 -0.144718,0.38233 -0.352395,0.71965 -1.047254,1.11001 -1.756902,1.404 -0.681126,0.28279 -1.386549,0.37071 -2.073802,0.29927 -4.104983,2.15197 -8.210916,4.30192 -12.319582,6.44682 l -4.109644,2.14309 c -8.187887,4.26484 -16.34345,8.59964 -24.582887,12.76429 l -0.606589,0.30548 c -2.845933,1.4276 -5.90189,2.8747 -9.060172,3.9545 -0.0562,0.79975 -0.0207,1.57752 0.04627,2.42398 l 0.01612,0.18439 c 0.09417,1.00029 0.296069,2.25366 -0.506052,2.96578 -0.417253,0.37029 -1.162605,0.37177 -1.446338,-0.18662 -0.514859,-1.01258 -0.0526,-2.60891 0.110493,-3.70899 0.05789,-0.39121 0.128451,-0.79341 0.232817,-1.18356 -3.620704,1.07831 -7.351056,1.60119 -11.035563,0.99567 -3.587324,-0.58903 -6.365705,-2.84984 -8.605564,-5.61515 -2.363873,-2.91811 -4.043662,-6.31895 -4.9449292,-9.96453 -1.0257042,-4.14839 -1.0926761,-8.43246 -1.0685916,-12.68165 0.025563,-4.5248 0.1928874,-9.07201 0.7430282,-13.56637 -0.6027465,-0.14181 -1.2711972,-0.2644 -1.8802817,-0.22213 -0.3016901,0.48294 -0.8869014,0.68626 -1.4157042,0.62349 -1.1499296,1.26873 1.766831,2.56537 2.6989437,2.89 0.3236619,0.11286 0.289014,0.6387 -0.084296,0.62285 l -0.2351457,-0.0112 c -1.4402876,-0.0767 -2.928299,-0.32266 -3.775136,-1.66166 -0.6785916,-1.07324 -0.4747183,-2.34472 0.3342253,-3.21992 0.5342958,-5.053811 1.8116198,-9.975102 3.0004226,-14.905059 1.1666197,-4.838865 2.4640146,-9.646662 3.8391556,-14.430153 l 0.616484,-2.140997 c 2.165133,-7.500519 4.428237,-15.061557 7.414853,-22.264044 1.491339,-3.596337 3.209367,-7.126521 5.538169,-10.262325 2.170775,-2.923186 4.733662,-5.424517 7.679578,-7.560845 5.491904,-3.983049 11.936086,-6.389701 18.267768,-8.682602 l 0.283429,-0.102596 c 3.281197,-1.187366 6.554366,-2.388892 9.798169,-3.675382 2.868803,-1.137698 5.617183,-2.580164 8.472465,-3.734982 -0.09275,-0.168446 -0.182324,-0.338794 -0.268521,-0.511045 l -0.05279,0.04441 c -0.009,0.0072 -0.01827,0.01413 -0.02792,0.02068 -0.287113,0.199092 -0.709859,0.101237 -0.946479,-0.12216 -0.668119,-0.630674 -0.441926,-1.330766 0.004,-1.9848252 l 0.05807,-0.083238 c 0.545493,-0.764454 1.032043,-1.5726575 1.535493,-2.3647984 L 70.28468,7.0162423 c 0.845061,-1.323395 1.733116,-2.655622 2.859876,-3.7493832 0.521831,-0.506818 1.093099,-0.8859805 1.69838,-1.1685558 -0.05176,-0.1094795 0.402043,-0.3332994 0.530705,-0.2206497 1.917676,-0.7021057 4.123943,-0.5550059 6.214648,-0.361409 M 156.93138,116.6918 l -2.66619,0.30328 c -2.93324,0.3339 -5.86762,0.65675 -8.80237,0.97648 l -6.37447,0.69298 c -0.0163,0.36352 -0.0604,0.71901 -0.0684,0.99356 -0.0416,1.41541 -0.0727,2.83146 -0.10204,4.24729 -0.0589,2.83801 0.006,5.67877 0.19247,8.51129 0.18103,2.74465 0.41943,5.48967 0.7899,8.21573 l 0.0759,0.54495 0.0439,0.28659 c 0.30233,0.0292 0.59937,0.17289 0.84634,0.46814 0.53916,0.64399 2.49148,0.018 3.25395,-0.25341 1.25387,-0.44637 2.43464,-1.20047 3.52415,-1.95668 1.06399,-0.73838 2.02206,-1.59939 2.94273,-2.50638 l 0.75328,-0.7453 c 0.74933,-0.74491 1.49946,-1.53848 1.95857,-2.47549 0.6226,-1.27063 0.7031,-2.8304 0.88563,-4.21432 0.22479,-1.70222 0.49247,-3.40422 0.77535,-5.09798 m -75.427596,-25.858708 -0.27655,0.0727 c -10.045986,2.670418 -20.076972,5.419658 -30.153803,7.972138 -4.98676,1.26345 -9.997183,2.43496 -14.99007,3.67411 l -0.808361,0.20225 c -3.938855,0.9959 -7.924995,2.19451 -10.941287,5.05255 -0.111338,0.10526 -0.272958,-0.0564 -0.168169,-0.16823 3.250775,-3.46192 7.874155,-4.92742 12.31331,-6.19785 0.820563,-0.23481 1.642183,-0.46412 2.462958,-0.69767 -6.037183,-2.15302 -12.169648,-4.02622 -18.443662,-5.36216 -1.615564,-0.34408 -3.24993,-0.59665 -4.864226,-0.94199 -1.125823,-0.241 -2.225294,-0.58935 -3.339225,-0.87832 l -0.8761973,-0.22049 -0.011636,2.7703 c -0.014582,3.92373 -0.00762,7.84426 0.1924816,11.76743 l 0.037879,0.72674 c 0.2334638,4.36593 0.5978817,8.82251 2.1466287,12.93917 1.258521,3.34525 3.264507,6.49669 5.887817,8.93335 1.327394,1.23281 2.754507,2.19255 4.518592,2.6664 1.637957,0.43982 3.354084,0.49139 5.037887,0.37409 8.076549,-0.56368 15.265986,-4.95279 22.28176,-8.58674 11.475423,-5.94381 22.952113,-11.88465 34.439155,-17.80563 -0.310563,-0.21241 -0.602958,-0.45715 -0.868943,-0.73212 -1.540353,-1.59147 -2.352888,-3.77007 -2.88655,-5.87998 -0.568098,-2.2458 -0.907817,-4.65287 -0.947324,-6.97139 m 14.873684,15.87793 c 0.101408,-0.0545 0.218873,0.0137 0.223521,0.12829 0.03549,0.87767 -0.449353,1.74332 -0.811615,2.53399 l -0.03831,0.0844 c -0.44007,0.97939 -0.921972,1.94569 -1.420352,2.89676 -0.996127,1.90025 -2.031338,3.78022 -3.111761,5.63355 -2.172676,3.72843 -4.587042,7.29982 -7.440845,10.54616 -0.644577,0.73339 -1.704718,-0.20691 -1.291056,-0.99651 1.994366,-3.80642 4.319366,-7.40043 6.712606,-10.96316 1.198098,-1.7838 2.395352,-3.56929 3.605281,-5.34505 0.504754,-0.74096 1.015963,-1.47928 1.540963,-2.20639 l 0.316713,-0.43486 M 213.29398,45.535315 c -10.08106,0.304556 -20.15028,0.962278 -30.18338,1.993033 -9.33085,0.958474 -18.62747,2.234396 -27.87169,3.825018 -1.93081,0.332172 -3.85927,0.677994 -5.78527,1.037466 l -1.1553,0.217321 c -1.92633,0.365213 -4.27964,0.515906 -5.99471,1.545393 -1.80824,1.085284 -2.29691,3.353495 -2.8986,5.223945 -0.70732,2.199734 -1.39669,4.405808 -2.06746,6.617167 -2.66366,8.780125 -5.09683,17.636336 -7.26739,26.551091 -1.07747,4.425042 -2.03346,8.874811 -3.04078,13.315911 -0.89493,3.94591 -1.88239,7.84723 -2.91401,11.75362 0.12718,-0.0989 0.2831,-0.17416 0.47134,-0.21431 5.12277,-1.09027 10.35202,-1.56428 15.55137,-2.1666 l 0.50306,-0.0587 c 5.37866,-0.63278 10.75733,-1.26092 16.13916,-1.86622 l 35.63218,-4.00869 c 2.10148,-0.23628 4.35275,-0.26841 6.39782,-0.8325 3.47699,-0.95956 4.29197,-4.84835 4.87534,-7.94532 l 0.0176,-0.0936 c 1.75881,-9.357115 3.15888,-18.795596 4.79916,-28.176379 M 124.9446,106.73793 c -1.38338,-0.0913 -3.27676,-1.35877 -4.32634,-1.26789 0.55099,0.92487 0.79965,1.97972 0.48212,3.10622 -0.88373,3.13474 -4.88028,1.51284 -6.80535,0.55521 -1.57838,-0.78558 -3.10247,-1.74681 -4.84986,-2.11477 -1.97958,-0.41636 -3.32071,0.37113 -4.9931,1.27888 -1.37366,0.74544 -2.86965,1.28079 -4.4081,1.55787 -0.818029,0.14752 -1.595071,0.16316 -2.370635,0.10567 -0.04669,0.038 -0.0993,0.0733 -0.159296,0.10483 l -0.410281,0.21537 c 1.855141,0.085 3.744722,0.65772 5.471202,1.18208 1.78901,0.54309 3.5453,1.1979 5.29224,1.86748 l 1.71859,0.66081 c 4.23917,1.62398 8.6273,3.16611 13.21508,3.15259 0.32979,-8.4e-4 0.6,0.0905 0.81275,0.23946 m -6.40895,-20.466102 c 1.36669,-0.167178 2.62817,0.01205 3.72021,0.902043 1.31704,1.073237 2.20183,2.853229 4.09521,2.970109 0.55204,0.034 0.68028,0.81052 0.13162,0.97284 -1.40937,0.41742 -2.55042,-0.34534 -3.51063,-1.33573 l -0.6456,-0.674783 c -0.9489,-0.982934 -1.82406,-1.742827 -3.43419,-1.684099 -1.72437,0.06298 -3.45169,0.461589 -5.16486,0.664274 -1.94071,0.229526 -3.88099,0.425237 -5.82782,0.594105 -0.0904,0.0078 -0.10585,-0.13463 -0.0211,-0.155553 l 2.18054,-0.542887 m 7.15741,-7.299731 0.2254,-0.02257 c 1.98459,-0.19278 3.79958,-0.200261 5.57199,0.867758 l 0.33995,0.205655 c 1.59801,0.971652 3.33735,2.11638 4.33667,3.689531 0.16352,0.257636 -0.10669,0.560501 -0.38028,0.494982 -1.92063,-0.461166 -3.32472,-1.870873 -4.93986,-2.925933 -1.81268,-1.183985 -3.68514,-0.988697 -5.75197,-0.804822 -2.00113,0.178168 -4.0012,0.422912 -5.98268,0.756634 -1.8619,0.313221 -3.72972,0.807781 -5.61042,0.965448 l 4.2e-4,-0.0038 c -0.21486,-4.23e-4 -0.33739,-0.323155 -0.11831,-0.432634 1.90859,-0.953402 4.11909,-1.404634 6.19521,-1.840227 M 176.17377,71.70344 c -0.19183,-0.917894 0.93676,-1.343553 1.45986,-0.615452 l 0.11125,0.153556 c 1.13011,1.548852 2.7645,3.49238 2.68129,5.462233 0.99338,0.02177 2.02331,0.625597 2.41035,1.522356 0.17894,0.414881 0.23958,0.906482 0.20007,1.415413 0.90296,0.07017 1.88768,0.663217 2.43972,1.240626 0.915,0.957206 0.98725,2.309848 0.33084,3.428313 -1.4312,2.438068 -4.55778,3.324989 -7.19721,3.522982 l -0.094,0.0068 c -2.7262,0.188524 -6.65451,0.137589 -8.52381,-2.202271 -1.80317,-2.257009 0.18972,-4.084344 2.23331,-5.076634 -0.53197,-0.485894 -0.80746,-1.182716 -0.54845,-1.917581 0.45486,-1.291561 2.06071,-1.790559 2.9681,-2.688375 1.10616,-1.094757 1.83714,-2.596438 1.54565,-4.166254 m 1.48139,1.899099 c -0.30063,1.30699 -1.03922,2.502387 -2.06788,3.449659 -0.39338,0.362255 -0.82374,0.684775 -1.28092,0.961856 l -0.055,0.03191 c -0.40574,0.227862 -1.40306,0.654766 -1.32631,1.166022 0.079,0.525417 1.70388,1.347781 2.14669,1.348204 0.10078,0 0.15782,0.157456 0.0549,0.203107 -0.8026,0.354646 -1.50359,0.506607 -2.28845,0.131883 -0.52436,0.535561 -1.03373,1.089722 -1.53824,1.639021 -0.89218,0.972 -0.5869,1.998317 0.46733,2.721981 1.69394,1.162849 4.26887,1.134528 6.24528,1.049988 1.98929,-0.08496 4.1157,-0.528798 5.66958,-1.854388 l 0.0677,-0.05898 c 0.8445,-0.75137 1.61586,-2.024578 0.32253,-2.748178 -0.50641,-0.283421 -1.05359,-0.266724 -1.53444,-0.404525 -0.45,0.882388 -1.17993,1.589143 -2.07063,1.725464 -0.71984,0.110149 -1.21559,-0.794983 -0.56077,-1.227904 l 0.1471,-0.09143 c 0.82225,-0.525002 1.52388,-1.333638 1.50529,-2.386695 -0.0127,-0.731016 -1.03315,-1.654316 -1.69796,-0.967443 l -0.0304,0.03285 c -0.55629,0.627294 -1.53613,-0.163188 -1.17024,-0.858262 l 0.0176,-0.03152 M 47.92857,37.340334 c -0.0025,-0.157033 0.218303,-0.215788 0.295416,-0.07989 1.291267,2.272649 1.966267,5.058458 2.654155,7.562325 0.720422,2.622857 1.302042,5.272344 1.824507,7.941276 1.058239,5.404438 1.622113,10.777808 1.660401,16.286019 0.0052,0.786435 -1.275471,0.995671 -1.400753,0.189793 -0.831761,-5.357942 -1.628662,-10.721378 -2.466761,-16.07784 -0.42169,-2.694082 -0.912465,-5.377808 -1.382113,-8.063859 M 60.712014,41.29882 c -0.09507,-0.313433 0.360845,-0.418263 0.477465,-0.131672 2.591408,6.363546 3.469014,13.575241 1.805282,20.288783 -0.254578,1.026951 -1.758169,0.582059 -1.566127,-0.432 M 94.138225,35.644396 c -0.0131,-0.234599 0.291338,-0.271585 0.406057,-0.110113 1.227887,1.730747 1.737253,4.048626 3.891549,4.94306 1.075563,0.446583 2.285919,0.368807 3.236199,1.123116 0.63528,0.504493 1.12246,1.300861 0.64563,2.064892 -0.1538,0.246857 -0.58436,0.370497 -0.7931,0.102294 -0.30464,-0.390787 -0.46584,-0.858717 -0.87971,-1.151648 -0.58374,-0.41319 -1.37092,-0.438763 -2.040216,-0.632994 -0.865775,-0.251084 -1.628873,-0.690482 -2.253803,-1.343343 M 114.65193,6.7773487 c 0.12655,-0.064462 0.24803,-0.023249 0.32894,0.086231 0.11557,0.1559766 0.10141,0.3077261 -0.0401,0.4146693 0.18909,0.3865597 0.4124,1.3549668 0.4443,1.4959374 0.12929,0.5714912 0.26683,1.1396008 0.4107,1.7072876 0.29028,1.144885 0.54465,2.298646 0.83514,3.443953 0.30803,1.213996 0.675,2.4151 1.08338,3.598873 0.0263,0.07665 0.0553,0.154896 0.0857,0.234301 l 0.0465,0.119922 0.0114,-0.01818 c 0.083,-0.131249 0.25584,-0.03952 0.23535,0.09912 -0.019,0.126387 -0.0446,0.252141 -0.0661,0.378528 l 0.0428,0.113226 c 0.26713,0.71926 0.45008,1.476773 -0.04,2.111448 -0.18338,0.237346 -0.38514,0.377894 -0.63655,0.419741 -0.4031,1.329394 -0.90887,2.634059 -1.45035,3.886944 l -0.15871,0.365897 c -0.7965,1.828217 -1.64598,3.632414 -2.91418,5.188811 -1.38465,1.699256 -3.28923,2.859569 -4.49535,4.721566 -0.56113,0.866113 -0.95155,1.776821 -1.26845,2.754951 l -0.11922,0.371274 c -0.22493,0.691836 -0.48445,1.362406 -1.13318,1.768225 -0.20704,0.129346 -0.51718,0.08813 -0.68408,-0.08835 -1.33035,-1.407804 0.0623,-4.036579 0.8645,-5.399577 1.11507,-1.895389 2.72895,-3.107906 4.34493,-4.537902 1.74191,-1.541378 2.85296,-3.603311 3.92768,-5.634599 0.65831,-1.244431 1.2938,-2.515703 1.96289,-3.765628 -0.69903,-0.618069 -0.92279,-1.845785 -1.15962,-2.699144 l -0.0216,-0.07652 c -0.39148,-1.366591 -0.70246,-2.768689 -0.89894,-4.176915 -0.1891,-1.354035 -0.26797,-2.688599 -0.21794,-4.0502095 l 0.0144,-0.3468516 m 3.26483,3.9574101 c -0.15444,-0.211773 0.10119,-0.451656 0.3131,-0.407484 1.28835,0.266506 2.54795,1.046657 3.70425,1.677497 l 0.12349,0.06699 c 0.92303,0.497941 1.85176,1.107898 2.33641,2.075248 0.52712,1.051372 0.48369,2.262328 0.41181,3.404889 l -0.007,0.106908 c -0.0881,1.370183 -0.10225,2.793839 -0.39211,4.139295 -0.14831,0.688579 -0.77176,0.882599 -1.30479,0.719859 -0.63423,2.00339 -2.41585,3.47946 -3.71725,5.06036 -1.6593,2.015437 -1.34705,4.736572 -1.1736,7.16393 0.0702,0.982779 -1.15183,1.262184 -1.78119,0.737824 l -1.45041,-1.205167 c -0.24154,-0.201158 -0.48276,-0.402716 -0.72332,-0.605049 -0.20606,-0.173448 -0.41024,-0.348211 -0.61273,-0.525166 l -0.30249,-0.267186 c -0.13415,-0.120047 -0.72591,-0.781362 -0.89894,-0.808837 -0.4191,-0.06665 -1.41479,1.038296 -1.75556,1.384853 l -0.0432,0.04324 c -0.64141,0.62919 -1.22092,1.306145 -1.76071,2.024102 -0.0993,0.131883 -0.29345,0.0224 -0.22246,-0.12998 0.48367,-1.036475 1.04607,-2.02744 1.71384,-2.954957 l 0.13496,-0.184652 c 0.4443,-0.598966 1.0407,-1.656563 1.82493,-1.833464 0.95758,-0.215845 1.91375,0.744812 2.61046,1.277992 l 0.0441,0.03344 c 0.33148,0.248759 0.65915,0.501957 0.98619,0.756845 -0.0342,-1.807256 0.19395,-3.633323 1.1267,-5.190763 0.65767,-1.098387 1.64302,-1.911875 2.48619,-2.855765 0.93867,-1.051045 1.4288,-2.342818 2.27852,-3.437401 0.10944,-0.140759 0.26028,-0.216634 0.4236,-0.240728 0.0327,-0.879986 0.1622,-1.768705 0.26231,-2.639163 l 0.029,-0.260563 c 0.1012,-0.945793 0.34035,-2.101033 -0.12253,-2.986803 -0.43725,-0.83663 -1.44049,-1.427181 -2.18341,-1.994829 l -0.6066,-0.470718 M 75.438063,3.2210841 c -0.387887,0.2244541 -0.750422,0.5036478 -1.079366,0.8525871 -1.035422,1.0988102 -1.775704,2.4662466 -2.496127,3.7816908 -0.387887,0.7084462 -0.761831,1.4247124 -1.152887,2.1314678 -0.17007,0.3075142 -0.345,0.6116482 -0.521831,0.9153582 -0.08176,0.139914 -0.324718,0.418051 -0.445141,0.589456 0.133807,0.187556 0.272152,0.372233 0.413273,0.554912 0.05384,0.0697 3.768085,4.117343 5.062784,5.701479 1.982535,2.426513 3.754648,4.989558 5.269648,7.732885 1.483521,2.686473 2.612957,5.530826 3.987253,8.269291 0.687887,1.37103 1.456056,2.732337 2.435282,3.918858 0.03782,0.04628 0.07775,0.09004 0.116408,0.135686 0.373719,-1.01001 1.331343,-2.091425 1.801675,-2.712376 l 0.04396,-0.05864 c 1.06669,-1.43845 2.193169,-2.833574 3.344155,-4.205026 1.051268,-1.252321 2.129243,-2.477589 3.233334,-3.682632 L 95.86574,26.695124 C 96.634965,25.863886 97.612077,24.62009 98.738134,24.026196 98.6175,23.811041 98.477852,23.598211 98.317289,23.388129 97.262218,22.00891 95.770795,21.007964 94.299151,20.104797 L 93.34478,19.524028 C 89.747334,17.330891 86.20593,15.036112 83.082782,12.186564 81.430458,10.678791 79.800951,9.0993699 78.412077,7.3407241 L 77.920893,6.7189068 m 3.519706,-4.5835291 c -1.684648,0.1413933 -3.503874,0.1077886 -5.060705,0.6568767 1.384014,1.3088924 2.699578,2.7221918 4.051057,4.0530646 0.120211,-0.9001409 0.366126,-1.7892916 0.574436,-2.6670294"
                 id="ðŸ–-Ink"
                 fill="#000000" />
            </g>
            <g
               id="head/Short-5"
               transform="translate(78.591549,38.043053)"
               fill-rule="evenodd">
              <path
                 d="m 51.135456,15.906142 c 11.995911,0 24.403629,9.301948 28.800867,15.237769 3.696989,4.990555 5.687512,27.557609 5.687512,42.808615 0,3.189665 1.75953,9.202395 1.246051,12.253432 -1.881597,11.18025 -10.079316,20.556742 -26.304349,20.556742 -16.225034,0 -27.858156,-6.4338 -39.917818,-23.707843 -5.851404,0 -8.687232,-4.489056 -8.729004,-11.573257 -0.02706,-4.722801 1.855832,-7.943347 5.648687,-9.661639 C 16.215063,43.181789 17.241836,31.43646 20.647719,26.583976 25.756543,19.305249 39.139546,15.906142 51.135456,15.906142 Z"
                 id="path9"
                 fill="#ffffff" />
              <path
                 d="m 46.087289,11.953106 c 7.573943,-0.767202 14.995774,-0.122583 22.459859,1.211249 0.570422,0.10335 0.893662,0.477651 1.013873,0.927616 3.515704,0.160626 7.035423,0.418685 10.546479,0.611014 1.274155,0.06974 1.996479,1.329182 1.415493,2.466458 -0.115986,0.225933 -0.23662,0.445737 -0.359155,0.665542 l 0.153942,-0.05077 c 1.056228,-0.338976 2.197177,-0.506097 3.22634,0.03196 1.309859,0.684774 1.82345,2.195718 1.534014,3.586403 -0.07416,0.355068 -0.198592,0.695342 -0.340141,1.027374 0.287324,-0.01902 0.57676,-0.01268 0.864084,0.02536 1.529578,0.202897 2.666198,1.375891 2.746479,2.93777 0.11831,2.358457 -1.400704,4.751154 -3.19014,6.439632 0.259647,0.534927 0.359154,1.164751 0.251197,1.803029 -0.215493,1.261761 -1.144648,2.017339 -2.221691,2.510208 0.449156,1.426825 0.661479,2.918536 0.536198,4.443005 -0.04183,0.508932 -0.486761,0.929308 -0.956409,1.032446 1.750564,4.821746 2.63662,9.99856 3.273803,15.042858 0.454225,3.588939 0.678169,7.198802 0.705423,10.814794 0.01333,1.632564 -0.01356,3.266964 -0.08202,4.899788 l -0.02762,0.612228 c -0.08451,1.764986 -0.08873,3.618317 -0.405634,5.364282 1.08169,1.840649 1.516901,4.125557 1.700704,6.188125 0.228169,2.553111 -0.133098,5.186536 -0.938239,7.615162 -3.038029,9.176621 -12.206831,14.967621 -21.416198,16.472641 -8.524436,1.3928 -18.388521,-0.48188 -23.370211,-8.22808 -0.07817,-0.12258 0.08873,-0.22382 0.185916,-0.1435 3.564084,2.89951 7.69838,4.19298 12.190141,4.8228 7.766197,1.08655 16.495563,-0.75664 22.727957,-5.642843 2.99155,-2.345988 5.148592,-5.761409 6.097395,-9.437002 0.483802,-1.878693 0.650704,-3.838121 0.460352,-5.771765 -0.194366,-1.961331 -1.062465,-3.635225 -1.609648,-5.488767 -0.183803,-0.625809 0.01056,-1.207022 0.392958,-1.621057 0.107535,-1.505026 0.361267,-3.022521 0.458239,-4.522896 0.107747,-1.705809 0.173451,-3.411405 0.19669,-5.119116 0.04437,-3.542231 -0.103521,-7.090802 -0.401408,-10.618027 -0.545071,-6.459076 -1.992254,-12.761331 -2.84155,-19.165456 -0.314506,0.282145 -0.765232,0.398 -1.237673,0.151497 l -0.04895,-0.0268 -0.257747,-0.147733 c -0.01479,0 -0.03169,0.0021 -0.04669,0.004 -1.763873,0.171405 -3.593451,-0.07376 -5.283591,-0.600235 -1.768522,-0.549299 -3.409859,-1.3947 -4.876268,-2.521197 -0.278662,1.413722 -0.39507,2.84245 -0.396972,4.283859 -0.0021,0.900352 -0.954929,1.367648 -1.711267,0.98299 -3.352817,-1.703695 -6.555634,-3.666928 -9.595775,-5.873424 -0.355141,1.819725 -0.709859,3.63924 -1.067113,5.46108 -0.137112,0.701894 -1.030986,0.985103 -1.603521,0.65117 -2.277253,-1.325378 -4.244155,-3.060352 -5.845563,-5.123343 -0.319719,0.611648 -0.640376,1.223202 -0.963224,1.833409 l -0.486072,0.914145 c -0.479577,0.898239 -1.121831,1.891797 -2.171831,2.179022 -1.111268,0.304344 -2.038944,-0.416149 -2.412676,-1.422388 -0.114085,-0.312587 -0.219718,-0.634051 -0.316902,-0.957417 -0.94669,2.162325 -2.015492,4.275828 -3.223943,6.29211 -1.812676,3.024211 -3.988944,5.718928 -6.158451,8.483389 -0.659155,0.839273 -1.787324,0.03804 -1.878169,-0.777557 -0.05282,-0.479765 -0.09718,-0.961644 -0.135422,-1.441621 -1.264226,2.552267 -2.583381,5.08065 -4.020634,7.535695 l 0.205774,0.806724 v 0 c 0.593029,2.383609 1.085493,4.784126 1.620845,7.180415 0.172817,0.773119 -0.237887,1.878481 -1.140845,2.010153 -1.078732,0.157244 -2.099366,0.708657 -3.204295,0.329283 -1.20486,-0.413823 -1.442958,-1.455569 -2.011691,-2.442998 -0.11345,-0.196767 -0.245492,-0.377471 -0.387464,-0.549088 l -0.03613,0.04692 v 0 c -0.08873,0.116454 -0.3,-0.01036 -0.247183,-0.143507 l 0.0619,-0.153863 v 0 c -0.488662,-0.518865 -1.07345,-0.95171 -1.611127,-1.417315 -1.277746,-0.215366 -2.715,0.0205 -3.595352,0.539789 -2.004929,1.18335 -2.925845,3.622333 -2.944859,5.864971 -0.02324,2.62497 0.78993,5.57542 2.163169,7.81996 0.604437,0.987006 1.432606,1.878693 2.526761,2.3164 1.086127,0.43517 2.262887,0.300117 3.367817,0.709925 0.730986,0.272853 1.180986,1.084439 0.739436,1.819726 -0.02958,0.05094 -0.06338,0.09722 -0.09528,0.146043 l 0.32863,0.436329 c 0.226041,0.302247 0.461722,0.625847 0.68144,0.962599 0.561972,0.646943 1.153521,1.270427 1.726056,1.906591 1.05824,1.172783 2.085212,2.377691 3.12655,3.567381 0.982605,1.122482 2.022042,2.176909 3.093169,3.214639 1.011972,0.98299 2.275352,1.809158 3.204929,2.857667 0.904014,1.022935 1.149296,2.808634 -0.338239,3.400626 -1.645625,0.656507 -3.102451,-0.882148 -4.210232,-1.907944 l -0.0466,-0.04303 c -2.030704,-1.869393 -3.864507,-4.005722 -5.320775,-6.357839 -1.442535,0.982356 -3.529014,1.076196 -4.965422,0.09405 -0.755916,-0.516752 -1.335845,-1.38519 -1.617676,-2.329926 -0.265775,0.0596 -0.531338,0.09447 -0.790352,0.09046 -0.13331,0.07735 -0.267043,0.152595 -0.402254,0.222763 -1.071338,0.557754 -2.387324,0.308572 -2.877465,-0.877315 -0.446325,-1.07654 0.0136,-2.299164 0.41562,-3.336407 l 0.08297,-0.214278 c 0.228171,-0.591556 0.479579,-1.236174 0.792255,-1.84275 C 14.749965,81.64819 14.006092,80.83428 13.376725,79.908777 11.261937,76.79136 10.205599,72.232323 10.6725,68.51277 c 0.280986,-2.244541 1.335,-4.569394 3.061056,-6.082873 l -0.06317,-0.164854 v 0 c -0.483802,-1.227733 -0.92345,-2.460117 -1.20845,-3.757596 -0.333803,-1.517496 -0.496691,-3.089942 -0.644367,-4.634912 -0.312676,-3.263249 -0.228169,-6.60047 0.188029,-9.851037 0.78169,-6.118592 2.76338,-12.125167 6.280985,-17.216596 -0.997394,-1.19434 -1.787323,-2.599819 -1.375563,-4.216438 0.18824,-0.742051 0.616901,-1.445636 1.263592,-1.870661 0.356831,-0.234388 0.78169,-0.270317 1.138732,-0.46476 l 0.107357,-0.05913 c 0.15683,-0.09155 0.03687,-0.08185 -0.05665,-0.507285 -0.369718,-1.699468 -0.06338,-3.341449 1.806338,-3.905754 1.759859,-0.530489 3.424648,0.596008 4.466198,1.938082 2.725352,-1.934066 6.316901,-2.946223 9.475352,-3.806418 3.591549,-0.974537 7.275845,-1.583014 10.975352,-1.959429 z M 16.649345,68.954344 c -0.01289,-1.384345 1.299085,-2.2382 2.590141,-2.011844 0.866906,0.150919 1.590085,0.668497 2.269167,1.203465 l 0.331087,0.262057 c 0.826924,0.649452 1.776295,1.349608 2.269253,2.269038 0.722535,1.356869 -0.804718,3.182724 -2.230775,2.231648 -0.978239,-0.65582 -1.605272,-1.70663 -2.246934,-2.682788 l -0.06645,-0.100696 c -0.291549,-0.437495 -0.547183,-0.902466 -0.94669,-1.253307 l -0.0863,-0.0756 c -0.131295,-0.111957 -0.272298,-0.214139 -0.441869,-0.262557 -0.327124,-0.09408 -0.933029,0.03767 -1.077282,0.427264 l -0.01286,0.03982 c -0.05282,0.196767 -0.34838,0.154285 -0.350493,-0.0465 z"
                 id="path11"
                 fill="#000000" />
            </g>
            <g
               id="face/Driven"
               transform="translate(112.1831,77.354207)"
               fill="#000000"
               fill-rule="evenodd">
              <path
                 d="m 37.789841,48.804432 c -1.433857,0.563898 -3.127918,0.697094 -4.607919,0.216642 -1.415154,-0.459516 -2.700171,-1.482177 -3.477713,-2.768314 -0.69254,-1.145535 -0.981759,-2.504954 -0.572465,-3.860169 0.01958,-0.06487 0.0831,-0.106351 0.144377,-0.122532 0.33485,0.304972 0.541729,0.607868 0.748427,0.909285 0.348474,0.508162 0.697722,1.011108 1.177141,1.445566 0.697533,0.632049 1.637326,1.145389 2.570035,1.314684 0.913224,0.166127 1.847881,0.01931 2.66559,-0.417973 0.497285,-0.265734 0.899362,-0.621087 1.297507,-0.978018 0.433547,-0.388668 0.860226,-0.783253 1.457328,-1.002724 0.478493,-0.175908 0.981111,-0.02747 1.367233,0.266781 0.415002,0.316264 0.713429,0.81132 0.696885,1.32888 -0.02562,0.801873 -0.376495,1.470769 -0.885599,2.022632 -0.688277,0.746084 -1.661456,1.283656 -2.580827,1.64526 z M 36.087529,28.821238 c 1.595362,0.970108 4.026203,3.232209 2.309961,5.637224 -2.020181,2.12058 -4.928786,-0.31081 -6.362095,-1.410434 -1.329032,-0.852214 -2.822274,1.339617 -1.589198,2.334721 10.357127,7.671009 14.560269,-6.307841 6.448244,-7.702119 -0.893164,-0.153644 -1.224887,0.840495 -0.806912,1.140608 z M 19.307324,15.379602 c 2.174366,-0.103985 4.090563,0.872876 6.162676,1.316712 1.91493,0.410442 3.801549,0.164008 5.663873,-0.358028 3.022395,-0.847303 4.271831,3.781269 1.290634,4.683312 -2.170986,0.656876 -4.456901,0.702528 -6.684718,0.363945 -1.978944,-0.300963 -3.637817,-1.26472 -5.524648,-1.825855 -1.619263,-0.481319 -3.524128,-0.281283 -5.234159,-0.05468 l -0.663799,0.08934 c -0.98662,0.132939 -1.978521,0.266301 -2.955422,0.459264 -0.847606,0.167601 -1.6937328,0.47427 -2.5588737,0.509777 -0.098239,0.0042 -0.1814788,-0.123428 -0.1195774,-0.208603 1.0049765,-1.380239 2.9418991,-2.469308 4.4826221,-3.195686 l 0.10442,-0.04896 c 1.901831,-0.887037 3.919437,-1.629511 6.036972,-1.730536 z m -0.796621,10.177696 -2.73e-4,-0.04761 c 0.003,-1.347736 0.787608,-4.42491 2.727068,-4.42491 1.211615,0 1.94722,2.094228 2.074565,4.253077 l 0.0044,0.08802 c 0.05623,1.342186 -0.311945,4.275969 -2.078988,4.275969 -1.785744,0 -2.708435,-2.778658 -2.726795,-4.144544 z m 28.553935,0 2.72e-4,-0.04761 c -0.003,-1.347736 -0.787608,-4.42491 -2.727068,-4.42491 -1.181324,0 -1.910142,1.990826 -2.063875,4.091317 l -0.01069,0.16176 c -0.0765,1.296871 0.267813,4.363991 2.074565,4.363991 1.785744,0 2.708435,-2.778658 2.726796,-4.144544 z m -0.02973,-11.819197 0.138721,0.003 c 2.266479,0.07862 4.597817,1.421753 5.202887,3.677918 0.03127,0.117088 -0.113028,0.195921 -0.198592,0.115608 -1.863617,-1.745482 -4.369963,-0.07763 -6.2361,0.796601 l -0.685438,0.316773 c -2.405753,1.119687 -5.141944,2.436074 -7.813109,1.601632 -1.268662,-0.396282 -2.074437,-1.700313 -1.712536,-3.017448 0.321953,-1.171934 1.735985,-2.156828 2.960732,-1.733829 l 0.05554,0.0202 c 0.99507,0.380782 2.218574,-0.005 3.246264,-0.385392 l 0.844206,-0.31714 c 1.357506,-0.515312 2.721288,-1.091838 4.197429,-1.077974 z"
                 id="path14" />
            </g>
            <g
               id="facial-hair/*-None"
               transform="translate(104.57745,109.47938)" />
            <g
               id="accessories/*-None"
               transform="translate(88.521127,88.978474)" />
          </g>
        </g>
      </g>
    </g>
  </g>
</svg>
