<?xml version="1.0" encoding="UTF-8" standalone="no"?>
<svg
   xmlns:dc="http://purl.org/dc/elements/1.1/"
   xmlns:cc="http://creativecommons.org/ns#"
   xmlns:rdf="http://www.w3.org/1999/02/22-rdf-syntax-ns#"
   xmlns:svg="http://www.w3.org/2000/svg"
   xmlns="http://www.w3.org/2000/svg"
   xmlns:sodipodi="http://sodipodi.sourceforge.net/DTD/sodipodi-0.dtd"
   xmlns:inkscape="http://www.inkscape.org/namespaces/inkscape"
   inkscape:version="1.0 (4035a4fb49, 2020-05-01)"
   sodipodi:docname="programing.svg"
   xml:space="preserve"
   style="enable-background:new 0 0 1000 1000;"
   viewBox="0 0 1000 1000"
   y="0px"
   x="0px"
   id="Layer_1"
   version="1.1"><metadata
   id="metadata367"><rdf:RDF><cc:Work
       rdf:about=""><dc:format>image/svg+xml</dc:format><dc:type
         rdf:resource="http://purl.org/dc/dcmitype/StillImage" /></cc:Work></rdf:RDF></metadata><defs
   id="defs365" /><sodipodi:namedview
   inkscape:current-layer="XMLID_34_"
   inkscape:window-maximized="1"
   inkscape:window-y="-8"
   inkscape:window-x="-8"
   inkscape:cy="462.20007"
   inkscape:cx="154.87883"
   inkscape:zoom="0.60104076"
   showgrid="false"
   id="namedview363"
   inkscape:window-height="1017"
   inkscape:window-width="1920"
   inkscape:pageshadow="2"
   inkscape:pageopacity="0"
   guidetolerance="10"
   gridtolerance="10"
   objecttolerance="10"
   borderopacity="1"
   bordercolor="#666666"
   pagecolor="#ffffff" />
<style
   id="style2"
   type="text/css">
	.st0{fill:#EAECEF;}
	.st1{fill:#2D425E;}
	.st2{fill:#C9C9C9;}
	.st3{fill:#CECECE;}
	.st4{fill:#FFFFFF;}
	.st5{fill:none;stroke:#1F3969;stroke-width:4;stroke-linecap:round;stroke-linejoin:round;stroke-miterlimit:10;}
	.st6{fill:#FF3E3E;}
	.st7{opacity:0.28;fill:#1F3969;stroke:#1F3969;stroke-width:4;stroke-linecap:round;stroke-linejoin:round;stroke-miterlimit:10;}
	.st8{fill:#50B56F;}
	.st9{fill:#5F5AFF;}
	.st10{fill:#F6F9FD;}
	.st11{fill:#BFCFE2;}
	.st12{fill:#D0DDF0;}
	.st13{fill:#2AA1FF;}
	.st14{opacity:0.34;fill:none;stroke:#FFFFFF;stroke-width:2;stroke-linecap:round;stroke-linejoin:round;stroke-miterlimit:10;}
	.st15{opacity:0.34;}
	.st16{fill:none;stroke:#FFFFFF;stroke-width:2;stroke-linecap:round;stroke-linejoin:round;stroke-miterlimit:10;}
	.st17{fill:#1F3969;}
	.st18{fill:none;stroke:#FFFFFF;stroke-width:4;stroke-linecap:round;stroke-linejoin:round;stroke-miterlimit:10;}
	.st19{fill:none;stroke:#7BFFA0;stroke-width:4;stroke-linecap:round;stroke-linejoin:round;stroke-miterlimit:10;}
	.st20{fill:none;stroke:#9169FF;stroke-width:4;stroke-linecap:round;stroke-linejoin:round;stroke-miterlimit:10;}
	.st21{fill:none;stroke:#FFC47D;stroke-width:4;stroke-linecap:round;stroke-linejoin:round;stroke-miterlimit:10;}
	.st22{fill:none;stroke:#FF5757;stroke-width:4;stroke-linecap:round;stroke-linejoin:round;stroke-miterlimit:10;}
	.st23{fill:#FFA364;}
	.st24{fill:#FF5252;}
	.st25{fill:#6567C3;}
</style>


<g
   id="XMLID_34_">
	<path
   style="stroke-width:2.0152"
   d="M 982.63523,922.41231 H 17.500367 c -7.7796041,0 -14.0032653,-10.44025 -14.0032653,-23.49054 v 0 c 0,-13.05031 6.2236612,-23.49055 14.0032653,-23.49055 H 982.63523 c 7.77959,0 14.00323,10.44024 14.00323,23.49055 v 0 c 0,13.05029 -6.22364,23.49054 -14.00323,23.49054 z"
   class="st2"
   id="XMLID_223_" />
	<g
   transform="matrix(2.5660242,0,0,2.6839282,-841.30139,-860.92628)"
   style="display:inline"
   id="XMLID_19_">
		
		
		<path
   d="m 378.9,579.3 h -30 v 15 c 0,9.4 7.6,17.1 17.1,17.1 h 19.7 c 0,-0.1 0,-0.2 0,-0.3 v -25 c 0,-3.8 -3,-6.8 -6.8,-6.8 z"
   class="st7"
   id="XMLID_246_" />
		
		
		
		
		
		
		<path
   d="m 553.6,633 -3,-33.7 h -49.4 l -3,33.7 c -0.7,7.8 -5.4,15.3 -12.8,21.3 v 0.1 h 81 v -0.1 c -7.4,-6 -12.1,-13.5 -12.8,-21.3 z"
   class="st11"
   id="XMLID_69_" />
		<polygon
   points="550.6,599.3 501.2,599.3 499.4,619.5 552.4,619.5 "
   class="st7"
   id="XMLID_33_" />
		<path
   d="m 553.6,633 -3,-33.7 h -49.4 l -3,33.7 c -0.7,7.8 -5.4,15.3 -12.8,21.3 v 0.1 h 81 v -0.1 c -7.4,-6 -12.1,-13.5 -12.8,-21.3 z"
   class="st5"
   id="XMLID_10_" />
		<path
   d="m 683.9,604.3 h -316 c -6.6,0 -12,-5.4 -12,-12 v -206 c 0,-6.6 5.4,-12 12,-12 h 316 c 6.6,0 12,5.4 12,12 v 206 c 0,6.7 -5.4,12 -12,12 z"
   class="st4"
   id="XMLID_13_" />
		<path
   d="m 683.9,604.3 h -316 c -6.6,0 -12,-5.4 -12,-12 v -206 c 0,-6.6 5.4,-12 12,-12 h 316 c 6.6,0 12,5.4 12,12 v 206 c 0,6.7 -5.4,12 -12,12 z"
   class="st11"
   id="XMLID_63_" />
		<path
   d="m 683.9,604.3 h -316 c -6.6,0 -12,-5.4 -12,-12 v -206 c 0,-6.6 5.4,-12 12,-12 h 316 c 6.6,0 12,5.4 12,12 v 206 c 0,6.7 -5.4,12 -12,12 z"
   class="st5"
   id="XMLID_4_" />
		
			<rect
   height="306"
   width="174.60001"
   class="st10"
   transform="rotate(90,525.91375,478.64185)"
   y="325.60001"
   x="438.60001"
   id="XMLID_68_" />
		<path
   d="m 383.9,374.3 v 138.6 c 0,4.4 3.6,8 8,8 H 581 c 4.4,0 8,-3.6 8,-8 V 374.3 Z"
   class="st7"
   id="XMLID_197_" />
		
			<rect
   height="306"
   width="174.60001"
   class="st5"
   transform="rotate(90,525.91375,478.64185)"
   y="325.60001"
   x="438.60001"
   id="XMLID_11_" />
		<line
   y2="585"
   x2="539.40002"
   y1="585"
   x1="512.5"
   class="st5"
   id="XMLID_9_" />
		<path
   d="M 590,509.9 H 400.9 c -4.4,0 -8,-3.6 -8,-8 V 353.7 c 0,-4.4 3.6,-8 8,-8 H 590 c 4.4,0 8,3.6 8,8 V 502 c 0,4.4 -3.6,7.9 -8,7.9 z"
   class="st1"
   id="XMLID_15_" />
		<path
   d="M 598,365.1 H 392.9 v -11.5 c 0,-4.4 3.6,-8 8,-8 H 590 c 4.4,0 8,3.6 8,8 z"
   class="st5"
   id="XMLID_17_" />
		<path
   d="M 598,368.9 H 392.9 v -15.3 c 0,-4.4 3.6,-8 8,-8 H 590 c 4.4,0 8,3.6 8,8 z"
   class="st12"
   id="XMLID_23_" />
		<path
   d="M 598,368.9 H 392.9 v -15.3 c 0,-4.4 3.6,-8 8,-8 H 590 c 4.4,0 8,3.6 8,8 z"
   class="st5"
   id="XMLID_18_" />
		<path
   d="M 598,368.9 H 392.9 v -15.3 c 0,-4.4 3.6,-8 8,-8 H 590 c 4.4,0 8,3.6 8,8 z"
   class="st5"
   id="XMLID_20_" />
		<path
   d="M 590,509.9 H 400.9 c -4.4,0 -8,-3.6 -8,-8 V 353.7 c 0,-4.4 3.6,-8 8,-8 H 590 c 4.4,0 8,3.6 8,8 V 502 c 0,4.4 -3.6,7.9 -8,7.9 z"
   class="st5"
   id="XMLID_12_" />
		<g
   id="XMLID_72_">
			<path
   d="m 688.7,545.3 h -116 c -4.4,0 -8,-3.6 -8,-8 V 414.4 c 0,-4.4 3.6,-8 8,-8 h 116 c 4.4,0 8,3.6 8,8 v 122.9 c 0,4.5 -3.6,8 -8,8 z"
   class="st7"
   id="XMLID_7_" />
			<path
   d="m 696.7,538.3 h -116 c -4.4,0 -8,-3.6 -8,-8 V 407.4 c 0,-4.4 3.6,-8 8,-8 h 116 c 4.4,0 8,3.6 8,8 v 122.9 c 0,4.5 -3.6,8 -8,8 z"
   class="st13"
   id="XMLID_16_" />
			<path
   d="m 696.7,538.3 h -116 c -4.4,0 -8,-3.6 -8,-8 V 407.4 c 0,-4.4 3.6,-8 8,-8 h 116 c 4.4,0 8,3.6 8,8 v 122.9 c 0,4.5 -3.6,8 -8,8 z"
   class="st5"
   id="XMLID_14_" />
			<path
   d="m 679.4,437.5 h -81.6 c -2.9,0 -5.2,-2.3 -5.2,-5.2 v -7.8 c 0,-2.9 2.3,-5.2 5.2,-5.2 h 81.6 c 2.9,0 5.2,2.3 5.2,5.2 v 7.8 c 0,2.9 -2.3,5.2 -5.2,5.2 z"
   class="st14"
   id="XMLID_75_" />
			<g
   class="st15"
   id="XMLID_143_">
				<path
   d="M 643.6,466.8 H 598 c -2.9,0 -5.2,-2.3 -5.2,-5.2 v -7.8 c 0,-2.9 2.3,-5.2 5.2,-5.2 h 45.6 c 2.9,0 5.2,2.3 5.2,5.2 v 7.8 c -0.1,2.9 -2.4,5.2 -5.2,5.2 z"
   class="st16"
   id="XMLID_78_" />
				<path
   d="m 679.5,466.8 h -17.7 c -2.9,0 -5.2,-2.3 -5.2,-5.2 v -7.8 c 0,-2.9 2.3,-5.2 5.2,-5.2 h 17.7 c 2.9,0 5.2,2.3 5.2,5.2 v 7.8 c 0,2.9 -2.3,5.2 -5.2,5.2 z"
   class="st16"
   id="XMLID_79_" />
			</g>
			<g
   id="XMLID_76_">
				<line
   y2="497.20001"
   x2="684.59998"
   y1="497.20001"
   x1="592.70001"
   class="st16"
   id="XMLID_135_" />
				<line
   y2="508"
   x2="684.59998"
   y1="508"
   x1="592.70001"
   class="st16"
   id="XMLID_136_" />
				<line
   y2="518.79999"
   x2="648.70001"
   y1="518.79999"
   x1="592.70001"
   class="st16"
   id="XMLID_138_" />
			</g>
		</g>
		<circle
   r="4"
   cy="357.29999"
   cx="413"
   class="st17"
   id="XMLID_24_" />
		<circle
   r="4"
   cy="357.29999"
   cx="426.89999"
   class="st17"
   id="XMLID_28_" />
		<circle
   r="4"
   cy="357.29999"
   cx="440.79999"
   class="st17"
   id="XMLID_38_" />
		<g
   id="XMLID_61_">
			<line
   y2="387.39999"
   x2="523.70001"
   y1="387.39999"
   x1="510.70001"
   class="st18"
   id="XMLID_54_" />
			<line
   y2="387.39999"
   x2="501.10001"
   y1="387.39999"
   x1="444.79999"
   class="st19"
   id="XMLID_66_" />
			<line
   y2="387.39999"
   x2="436.79999"
   y1="387.39999"
   x1="417"
   class="st20"
   id="XMLID_29_" />
		</g>
		<g
   id="XMLID_42_">
			<line
   y2="485.89999"
   x2="485.79999"
   y1="485.89999"
   x1="442.79999"
   class="st20"
   id="XMLID_62_" />
			<line
   y2="485.89999"
   x2="430.89999"
   y1="485.89999"
   x1="417"
   class="st19"
   id="XMLID_30_" />
		</g>
		<g
   id="XMLID_27_">
			<line
   y2="399.70001"
   x2="509.20001"
   y1="399.70001"
   x1="501.10001"
   class="st18"
   id="XMLID_60_" />
			<line
   y2="399.70001"
   x2="491.5"
   y1="399.70001"
   x1="464.29999"
   class="st20"
   id="XMLID_45_" />
			<line
   y2="399.70001"
   x2="454.60001"
   y1="399.70001"
   x1="426.89999"
   class="st21"
   id="XMLID_47_" />
		</g>
		<g
   id="XMLID_49_">
			<line
   y2="412"
   x2="493.70001"
   y1="412"
   x1="469.79999"
   class="st18"
   id="XMLID_59_" />
			<line
   y2="412"
   x2="462.29999"
   y1="412"
   x1="439.79999"
   class="st22"
   id="XMLID_50_" />
		</g>
		<g
   id="XMLID_65_">
			<line
   y2="424.29999"
   x2="477.89999"
   y1="424.29999"
   x1="473"
   class="st18"
   id="XMLID_58_" />
			<line
   y2="424.29999"
   x2="464.29999"
   y1="424.29999"
   x1="453.20001"
   class="st20"
   id="XMLID_70_" />
			<line
   y2="424.29999"
   x2="444.79999"
   y1="424.29999"
   x1="426.89999"
   class="st19"
   id="XMLID_67_" />
		</g>
		<g
   id="XMLID_73_">
			<line
   y2="436.70001"
   x2="497.20001"
   y1="436.70001"
   x1="465.29999"
   class="st21"
   id="XMLID_77_" />
			<line
   y2="436.70001"
   x2="455.5"
   y1="436.70001"
   x1="426.89999"
   class="st22"
   id="XMLID_74_" />
		</g>
		<g
   id="XMLID_80_">
			<line
   y2="449"
   x2="519.5"
   y1="449"
   x1="502.20001"
   class="st20"
   id="XMLID_64_" />
			<line
   y2="449"
   x2="493"
   y1="449"
   x1="465.29999"
   class="st22"
   id="XMLID_84_" />
			<line
   y2="449"
   x2="455.5"
   y1="449"
   x1="439.79999"
   class="st19"
   id="XMLID_81_" />
		</g>
		<g
   id="XMLID_87_">
			<line
   y2="461.29999"
   x2="493"
   y1="461.29999"
   x1="477.89999"
   class="st18"
   id="XMLID_95_" />
			<line
   y2="461.29999"
   x2="467.5"
   y1="461.29999"
   x1="439.79999"
   class="st20"
   id="XMLID_90_" />
		</g>
		<g
   id="XMLID_98_">
			<line
   y2="473.60001"
   x2="534.5"
   y1="473.60001"
   x1="517.20001"
   class="st18"
   id="XMLID_71_" />
			<line
   y2="473.60001"
   x2="507.79999"
   y1="473.60001"
   x1="464.29999"
   class="st21"
   id="XMLID_102_" />
			<line
   y2="473.60001"
   x2="454.60001"
   y1="473.60001"
   x1="426.89999"
   class="st18"
   id="XMLID_99_" />
		</g>
		
		
		
	</g>
	
</g>

</svg>
