<?xml version="1.0" encoding="UTF-8" standalone="no"?>
<svg
   xmlns:dc="http://purl.org/dc/elements/1.1/"
   xmlns:cc="http://creativecommons.org/ns#"
   xmlns:rdf="http://www.w3.org/1999/02/22-rdf-syntax-ns#"
   xmlns:svg="http://www.w3.org/2000/svg"
   xmlns="http://www.w3.org/2000/svg"
   id="e87ddc62-7528-42a5-8b37-f74ed0351019"
   data-name="Layer 1"
   width="1131"
   height="812.20611"
   viewBox="0 0 1131 812.20611"
   version="1.1">
  <metadata
     id="metadata143">
    <rdf:RDF>
      <cc:Work
         rdf:about="">
        <dc:format>image/svg+xml</dc:format>
        <dc:type
           rdf:resource="http://purl.org/dc/dcmitype/StillImage" />
        <dc:title>software engineer</dc:title>
      </cc:Work>
    </rdf:RDF>
  </metadata>
  <defs
     id="defs141" />
  <title
     id="title2">software engineer</title>
  <g
     transform="matrix(-0.59189962,0,0,0.59189962,761.61745,320.21955)"
     id="body/mono/Hoodie"
     stroke="none"
     stroke-width="1"
     fill="none"
     fill-rule="evenodd">
    <path
       d="m 790.7482,715.6861 c 19.326,-0.933 11.553,-34.738 10.166,-47.153 -15.301,-45.344 -11.704,-94.816 -17.722,-142.344 -3.749,-44.368 -8.566,-88.598 -12.618,-132.932 -7.958,-89.994 -65.10499,-273.19786 -130.3203,-302.6615 -8.215,-36.046 -42.14591,-69.694228 -85.07584,-69.694228 -29.28,-34.659 -64.52286,-59.051272 -109.72586,-54.126272 -18.68,0.85 -36.7958,20.662 -54.6948,24.488 -10.022,1.382 -98.9622,-2.175 -116.7782,8.406 -12.41,6.372 -23.613,18.147 -19.964,33.138 5.822,18.162 -12.271,-1.49 -50.014,17.895 C 127.038,96.925257 173.028,158.76174 175.066,160.67774 127.038,227.50074 85.0592,281.7131 65.6362,363.3901 c -12.588,60.639 -11.171,123.238 -21.718,184.188 -3.724,21.134 -9.437,41.545 -15.619,62.068 -6.7,26.859 -9.95784,93.80267 -13.65084,94.40067 -6.7270001,1.671 3.88784,15.48333 11.01584,15.49433 197.624,32.781 398.362,1.358 597.048,-3.776 55.993,-1.947 112.046,-2.396 168.036,-0.079 z"
       id="ðŸŽ¨-Background"
       fill="#ffffff" />
    <path
       d="m 491.2195,166.5759 c 0.092,-0.905 1.312,-0.903 1.406,0 l 1.39525,13.46915 c 1.69761,16.45007 3.33189,32.86814 4.51675,49.39485 1.477,20.609 2.465,41.213 2.941,61.868 1.66,71.937 1.99,143.912 2.13,215.867 9.731,-0.674 19.463,-1.323 29.2,-1.951 6.606,-0.42667 13.21244,-0.836 19.81963,-1.23867 l 16.84737,-1.02158 v 0 l 6.936,-0.42575 c 4.687,-0.29 10.012,-1.47 13.289,2.682 1.312,1.662 1.97,3.822 0.747,5.795 -2.821,4.551 -7.154,4.392 -12.055,4.589 -4.624,0.187 -9.248,0.37 -13.872,0.548 -9.909,0.385 -19.817,0.748 -29.729,1.026 -10.402,0.292 -20.799,0.529 -31.197,0.706 -0.10522,30.37652 -1.36204,60.71524 -2.72108,91.05823 l -0.61492,13.65477 c -1.663,36.926 -3.452,73.884 -5.993,110.761 -0.209,3.019 -4.48,3.013 -4.687,0 -2.862,-41.529 -4.75,-83.147 -6.622,-124.732 -1.358,-30.151 -2.148,-60.31 -2.524,-90.473 -1.375,0.009 -2.749,0.028 -4.123,0.033 -39.027,0.17 -78.044,0.34 -117.071,-0.026 0.065,0.077 0.129,0.154 0.172,0.256 2.824,6.667 3.093,15.175 3.024,22.33 -0.079,8.206 -1.184,16.312 -3.074,24.292 -6.7714,28.58826 -24.23705,54.19371 -44.12948,75.36326 l -0.64952,0.68874 c -4.692,4.958 -10.075,9.939 -12.956,16.254 -2.94282,6.448 -3.96427,13.99021 -5.4164,20.91841 l -0.1696,0.79659 -5.678,26.226 c -1.804,8.33 -2.316,20.479 -8.91,26.489 -6.152,5.608 -14.302,2.679 -17.197,-4.541 -2.261,-5.635 -0.009,-11.824 1.33,-17.456 l 10.49113,-44.10003 c 1.72384,-7.19166 3.60746,-14.43052 7.32787,-20.89097 3.811,-6.617 9.398,-11.414 15.099,-16.322 10.795,-9.294 20.705,-19.934 29.086,-31.454 8.378,-11.516 15.538,-24.21 20.559,-37.558 2.514,-6.682 4.574,-13.624 5.995,-20.622 1.351,-6.641 1.339,-13.519 2.784,-20.089 0.099,-0.454 0.482,-0.765 0.921,-0.903 -0.104,-0.293 0.055,-0.689 0.465,-0.715 l 31.91754,-2.05093 c 28.37177,-1.83025 56.74228,-3.70734 85.08846,-5.85207 l 5.009,-0.362 v 0 c -0.389,-40.245 -0.059,-80.498 0.668,-120.758 0.666,-36.919 0.68,-73.848 1.778,-110.762 0.546,-18.321 1.723,-36.599 3.033,-54.882 1.34,-18.698 3.485,-37.238 5.413,-55.88 z M 191.5274,380.641 c -0.34,-2.05 2.239,-3.32 3.428,-1.445 13.591,21.422 20.144,44.691 22.906,69.76 2.44,22.125 1.721,44.569 0.506,66.752 -1.296,23.66 -2.808,47.314 -4.337,70.961 l -2.34913,36.26313 v 0 L 205.7864,713.841 c -0.422,6.503 -1.898,12.416 -7.497,15.439 -0.709,0.592 -1.448,1.123 -2.309,1.583 -3.025,1.617 -7.037,0.8 -8.786,-2.304 l 0.70127,0.46131 c 0.61085,0.38461 -0.0751,-0.15251 -2.05827,-1.60931 l -1.683,-2.178 v 0 c -1.223,-1.838 -2.004,-3.645 -2.318,-5.83 -0.488,-3.395 0.144,-7.119 0.366,-10.531 l 3.864,-59.612 v 0 c 3.005,-46.343 6.514,-92.673 9.159,-139.04 1.232,-21.61 2.095,-43.241 1.511,-64.889 -0.582,-21.528 -1.679,-43.421 -5.209,-64.69 z m 117.57394,-399.05533 0.75406,-0.12657 c 26.995,-4.484 56.349,-3.645 81.02,9.368 0.204,0.107 0.111,0.446 -0.118,0.436 l -7.94089,-0.3171314 C 357.67758,-10.038476 332.61649,-10.621186 307.8984,-4.7149 l -2.53042,0.6095534 C 296.4663,-1.9338565 287.17044,0.72401304 280.0204,6.6031 c -6.834,5.62 -10.237,14.289 -13.509,22.27 l -0.43761,1.053199 c -3.31983,7.882324 -7.52179,15.357865 -14.79839,20.286801 -9.425,6.383 -20.76,5.601 -31.567,6.468 -19.028,1.529 -34.585,15.319 -42.325,32.194 -4.687,10.218 -6.686,21.674 -7.082,32.848 -0.203,5.689 -0.232,11.6 0.526,17.251 0.242,1.807 2.476,8.39 3.615,8.232 2.531,-0.351 4.845,0.969 5.634,2.992 6.252,-6.04 12.684,-11.906 19.323,-17.561 16.549,-14.093 34.374,-26.866 53.146,-37.842 14.327,-8.378 29.439,-16.678 45.088,-22.953 -1.24,-0.026 -2.463,0.22 -3.646,0.835 -0.518,0.271 -1.033,-0.379 -0.624,-0.809 4.929,-5.186 10.833,-5.924 16.785,-4.541 1.27,-0.404 2.541,-0.795 3.817,-1.166 0.635,-0.185 0.951,0.69 0.433,1.028 l -1.462,0.934 v 0 c 6.493,2.175 12.868,6.45 17.915,9.824 14.498,9.689 27.259,21.534 40.195,33.157 l 2.35202,2.1071 c 11.38655,10.1668 23.06317,20.04642 35.99998,28.2029 6.772,4.269 13.885,8.218 21.346,11.155 6.399,2.521 16.818,4.108 19.815,10.871 2.664,3.236 1.551,7.366 -1.569,9.544 -5.262,5.791 -15.788,2.05 -22.058,-0.362 -7.559,-2.908 -14.882,-6.403 -21.866,-10.502 -13.559,-7.96 -26.061,-17.857 -37.707,-28.385 -12.163,-10.996 -23.636,-22.677 -35.466,-34.018 -5.12571,-4.914 -10.13314,-9.943347 -15.26662,-14.85 l -2.57838,-2.442 c -2.62,-2.457 -6.353,-6.287 -10.344,-8.605 -7.519,4.485 -15.154,8.785 -22.605,13.386 -10.401,6.422 -20.496,13.307 -30.435,20.419 -19.134,13.691 -37.266,29.025 -54.099,45.461 -30.872,30.142 -57.174,64.562 -80.151,101.008 l -1.74486,2.7775 c -13.05679,20.86058 -25.404246,42.39397 -34.15914,65.4445 -9.633,25.365 -14.318,52.038 -16.863,78.963 -2.526,26.732 -3.378,53.599 -6.201,80.306 -2.895,27.391 -8.599,54.177 -15.087,80.913 l -1.547359,6.33863 C 34.941431,592.7812 28.88213,616.72569 25.8644,641.2351 c -1.611,13.092 -2.58,26.363 -2.361,39.561 0.22,13.275 2.306,26.256 3.989,39.391 0.645,5.032 -4.307,9.232 -8.738,9.899 -5.096,0.765 -9.474,-2.486 -11.058,-7.22 -4.938,-14.757 -5.835,-31.07 -5.68,-46.559 0.156,-15.725 2.163,-31.347 4.987,-46.801 5.554,-30.398 14.125,-60.167 21.295,-90.201 6.319,-26.472 10.56,-52.99 12.846,-80.109 2.373,-28.136 3.794,-56.366 8.123,-84.299 4.273,-27.576 12.313,-53.916 24.438,-79.061 11.04,-22.894 24.802,-44.443 39.23,-65.33 17.521,-25.363 36.764,-49.498 58.274,-71.488 -1.932,-0.084 -3.916,-0.708 -5.738,-1.844 -5.574,-3.477 -8.17,-10.278 -8.968,-16.488 -1.868,-14.527 -1.417,-29.693 2.319,-43.896 6.027,-22.912 21.669,-43.27 44.339,-51.529 5.835,-2.126 12.038,-2.902 18.222,-3.055 5.868,-0.146 12.277,0.619 17.939,-1.241 9.01235,-2.962424 12.87536,-13.576599 16.25915,-21.622511 L 255.7374,18.9731 c 4.339,-10.253 9.547,-19.041 18.945,-25.443 10.02667,-6.831646 22.58927,-9.93848 34.41894,-11.94443 z M 565.5989,22.1336 c 8.112,-2.814 18.254,-0.26 26.187,2.198 8.838,2.74 17.005,7.786 24.007,13.779 7.387,6.32 13.492,14.124 17.805,22.842 l 0.41236,0.839893 c 3.93945,8.086919 8.42594,19.188836 6.43964,28.073107 -0.057,0.252 -0.122,0.495 -0.196,0.73 16.095,7.923 30.959,17.847 43.903,30.425 15.072,14.645 27.834,31.31 38.634,49.314 42.89376,71.50752 50.44324,157.38739 55.5093,238.9363 l 1.2635,20.67709 c 2.75058,44.64892 5.97006,89.19214 14.3322,133.22461 l 0.61012,3.17893 c 8.93862,46.10248 21.73408,92.55728 20.43788,139.85107 -0.389,14.17 -21.331,14.074 -21.938,0 -2.286,-52.973 -14.648,-104.119 -23.019,-156.264 -14.729,-91.741 -7.349,-186.321 -28.219,-277.143 -8.19,-35.642 -20.877,-70.215 -38.994,-102.03 -8.949,-15.717 -19.188,-30.904 -31.182,-44.463 -10.319,-11.667 -21.044,-22.895 -33.103,-32.703 -3.854,3.86 -11.553,1.893 -13.565,-3.734 -1.382,-3.867 -0.979,-8.388 -1.866,-12.439 -0.823,-3.759 -1.958,-7.486 -3.47,-11.026 -3.014,-7.055 -7.438,-13.83 -12.545,-19.54 -5.517,-6.172 -11.858,-11.3 -18.953,-15.534 -7.144,-4.263 -14.957,-5.536 -22.491,-8.651 -0.254,-0.105 -0.278,-0.445 0,-0.542 z m 31.5163,490.2949 c 0.012,-0.372 0.451,-0.548 0.721,-0.299 2.844,2.617 4.563,6.373 6.656,9.592 2.414,3.712 4.949,7.348 7.607,10.89 5.326,7.096 11.255,13.784 17.231,20.337 5.558,6.094 11.482,11.931 17.627,17.433 6.658,5.963 14.119,11.282 20.168,17.884 12.62179,13.77607 14.66138,32.68349 17.32428,50.43677 l 0.29172,1.92023 c 1.624,10.536 3.079,21.1 4.391,31.679 0.638,5.146 1.274,10.297 1.794,15.456 l 0.15882,1.6345 c 0.46358,5.05068 0.58862,10.17457 -2.31182,14.5875 -3.105,4.721 -10.164,6.376 -14.361,1.849 -7.211,-7.777 -5.859,-21.591 -6.797,-31.596 -0.77486,-8.27314 -1.65404,-16.536 -2.63818,-24.78668 l -0.50082,-4.12432 c -1.16,-9.386 -2.102,-18.959 -4.249,-28.182 -1.893,-8.122 -5.5,-14.252 -11.418,-20.136 -5.962,-5.927 -12.157,-11.46 -17.66,-17.843 -5.837,-6.77 -11.102,-14.029 -15.846,-21.605 -4.05758,-6.48 -7.31009,-13.53171 -10.28982,-20.57525 l -0.49418,-1.17375 c -2.88,-6.869 -7.629,-15.811 -7.404,-23.378 z M 701.2275,217.384 c 0.063,-0.958 1.479,-0.973 1.5,0 0.179,8.24 0.351,16.48 0.522,24.721 1.376,66.402 0.528,132.961 7.19,199.135 3.142,31.201 8.928,61.943 15.623,92.557 3.426,15.665 7.02,31.293 10.435,46.96 3.328,15.269 6.897,30.612 9.537,46.023 2.59421,15.14646 4.91749,30.40955 5.96032,45.75056 l 0.12868,2.00144 c 0.449,7.431 2.592,18.361 -1.5,24.948 -4.434,7.136 -12.923,7.264 -17.674,0.452 -4.461,-6.395 -3.352,-17.771 -4.14,-25.4 -0.801,-7.773 -1.648,-15.552 -2.61,-23.307 -1.877,-15.127 -4.35,-30.22 -6.922,-45.244 -5.357,-31.288 -13.127,-62.182 -18.862,-93.42 -5.878,-32.009 -10.056,-64.247 -10.232,-96.837 -0.175,-32.867 3.304,-65.67 5.06,-98.465 1.784,-33.308 3.812,-66.591 5.984,-99.875 z M 387.5472,10.8503 c 1.783,-6.003 8.075,-9.756 14.213,-8.07 5.625,1.546 10.269,8.373 8.07,14.214 -2.4,6.374 -6.594,11.809 -10.13,17.602 -3.266,5.353 -8.03,9.568 -11.357,14.826 l 3.66622,3.952512 c 1.8343,1.971648 3.67378,3.931488 5.53378,5.857488 l 6.3945,6.62382 c 4.98022,5.14766 9.9918,10.26788 15.1445,15.23718 15.152,14.615 30.544,28.75 47.513,41.266 3.863,2.848 7.756,5.68 11.758,8.332 l 1.49225,0.98887 c 2.74563,1.79765 5.80897,3.56472 9.12575,3.26013 8.0596,-0.74002 15.34173,-9.29927 20.88012,-14.62666 l 0.28988,-0.27734 c 13.725,-13.059 26.434,-27.337 37.545,-42.689 2.467,-3.411 4.856,-6.88 7.182,-10.39 -5.372,-6.275 -4.089,-18.524 -4.385,-26.134 -0.209,-5.351 -0.225,-10.703 -0.254,-16.058 l -0.0146,-1.079836 c -0.0654,-3.465985 -0.22168,-6.790195 2.02763,-9.642164 0.131,-0.165 0.402,-0.16 0.569,-0.073 3.08077,1.614333 4.03007,4.317294 5.34461,7.349211 l 0.13739,0.314789 c 1.6,3.639 3.132,7.312 4.682,10.972 1.623,3.832 3.111,7.72 4.619,11.598 0.702,1.804 1.372,3.615 2.027,5.436 0.399,1.163 0.812,2.32 1.236,3.475 l 0.1,0.089 c 0.56,0.475 1.035,0.977 1.444,1.495 1.719,0.86 3.085,2.427 3.726,4.729 1.395,5.011 -1.492,9.097 -4.067,13.074 -10.46,16.16 -22.384,31.559 -35.638,45.528 -6.584,6.94 -13.509,13.568 -20.719,19.855 l -1.26043,1.0917 c -6.47688,5.56588 -13.50869,10.83822 -22.15857,12.1403 -10.12258,1.52323 -18.36087,-3.51109 -26.1097,-9.3098 l -0.7733,-0.5822 c -7.346,-5.561 -14.544,-11.317 -21.518,-17.338 -14.219,-12.276 -27.746,-25.457 -39.751,-39.918 -11.678,-14.066 -23.221,-29.794 -30.419,-46.719 -0.439,-1.031 0.715,-2.11 1.619,-1.249 3.516,3.347 6.899,6.876 10.242,10.45 0.093,-5.261 -0.878,-10.567 -0.338,-15.861 0.659,-6.435 0.469,-13.544 2.311,-19.74 z"
       id="ðŸ–-Ink"
       fill="#000000" />
  </g>
  <g
     style="display:inline"
     transform="matrix(-0.59189962,0,0,0.59189962,625.7498,30.010389)"
     fill-rule="evenodd"
     fill="none"
     stroke-width="1"
     stroke="none"
     id="head/mono/Pomp">
    <path
       fill="#ffffff"
       id="ðŸŽ¨-Background-1"
       d="m 385.41465,173.22156 c -3.861,-23.35914 8.81101,-28.20574 0,-50.41064 -19.582,-41.143608 -72.947,-39.370848 -112.107,-42.534282 -43.67799,-1.673997 -87.886,4.092213 -128.152,21.598352 -9.618,4.181 -18.869,9.09824 -27.73699,14.68488 -7.66801,4.83145 -6.61401,14.01748 -1.779,19.02849 -34.865005,49.37193 -14.92401,115.64345 -42.743005,167.61317 -5.139,9.28978 -11.936,17.61986 -16.403,27.28575 -6.79,14.69286 -7.225,35.74551 8.173,45.50318 21.687,11.64016 33.789,-11.40672 44.445005,22.00238 53.21799,116.49042 160.217,123.05074 261.79299,62.31698 8.788,-4.88831 17.757,-10.4131 24.39301,-18.09274 15.06299,-16.95146 13.28899,-40.78945 13.62199,-61.95783 0.18601,-12.40533 0.21701,-24.81266 0.096,-37.21999 -0.474,-50.25781 -17.131,-119.97389 -23.601,-169.8177 z" />
    <path
       style="display:inline"
       fill="#000000"
       id="ðŸ–-Ink-8"
       d="m 169.0666,33.5077 c 324.8727,-35.9747852 94.75713,9.00558 244.14041,-1.256471 20.73504,29.678468 22.88973,30.893019 -22.53882,41.694706 26.46506,4.626264 39.93508,74.130645 13.59927,79.443525 l -0.49986,-0.0318 -0.92,10.53 c -0.49,5.61 -3.85,9.96 -9.55,10.82 -0.2,0.03 -0.401,0.05 -0.6,0.069 9.02,32.621 14.47,66.25 19.5,99.681 2.628,17.451 4.9806,34.9425 7.23276,52.44534 l 0.74724,5.83466 c 2.4,18.87 5.4,37.93 6.44,56.94 0.93,17.25 -2.36,33.72 -12.99,47.64 -9.54,12.48 -22.55,21.83 -36.54,28.77 -31.61,15.689 -64.88,27.37 -99.84,32.79 l -2.33137,0.35874 c -13.49479,2.05978 -27.39881,3.7958 -40.74863,0.0613 -11.729,-3.28 -24.03,-11.74 -21.38,-25.33 0.89,-4.59 7.31,-4.79 9.51,-1.24 l 0.50783,0.81344 c 2.63809,4.18572 5.5292,8.07589 10.13317,10.23556 5.389,2.541 11.639,3.25 17.529,3.321 16.45,0.19 33.58,-3.91 49.42,-8.02 29.58,-7.679 45.80955,-20.2 70.03955,-39.17 10.31,-8.06 4.00951,-29.90427 6.92951,-42.87427 3.61,-15.99 29.02094,-21.70573 27.38094,-37.77573 -3.375,-33.15938 -7.3916,-66.25723 -11.62958,-99.31827 l -0.85042,-6.61173 c -3.569,-27.64 -7.319,-55.29 -9.1,-83.09 -0.74,-1.01 -1.24,-2.16 -1.44,-3.42 l -0.279,-1.81 v 0 c -0.241,-1.55 -0.281,-2.97 -0.111,-4.28 0.01,-5.02 0.15,-10.01 0.44,-15.031 0.049,-0.899 0.09,-1.799 0.12,-2.689 -5.22,1.15 -10.48,2.08 -15.76,2.87 -37.12,5.59 -74.82,6.99 -112.24,4.21 -18.67,-1.391 -37.199,-3.78 -55.67,-6.77 -9.401,-1.52 -18.77,-3.2 -28.11,-5.08 -6.75,-1.35 -13.36,-3.18 -20,-4.9 -6.85,9.97 -10.55,22.24 -9.83,34.29 0.81,13.75 9.97,26.22 7.4,40.27 -2.412,13.149 -13.6773,17.226 -24.79931,20.48255 l -4.73034,1.36667 c -3.63914,1.06252 -6.28163,2.08759 -6.94035,6.46078 -1.13,7.51 0.26,15.96 0.55,23.51 0.35,8.93 0.809,17.86 1.02,26.79 0.11,4.62 0.289,9.26 0.28,13.88 -0.01,3.28 -0.5,5.52 -1.77,7.639 0.98,1.231 1.859,2.561 2.64,3.971 0.25,0.46 -0.37,0.949 -0.739,0.57 -0.991,-1.03 -2.042,-1.96 -3.151,-2.791 -0.56,0.691 -1.21,1.391 -1.971,2.141 l -0.059,-0.08 v 0 c -2.38,2.37 -6.16,2.6 -9.111,0.08 l -0.774334,-0.67089 c -2.159905,-1.89333 -3.643976,-3.47014 -4.244666,-6.59911 -0.03,-0.16 -0.061,-0.32 -0.08,-0.48 -5.49,-0.19 -11.07,1.109 -16.01,3.84 -7.83,4.33 -13.34,10.5 -16.599,18.12 1.299,1.52 2.819,2.88 4.589,4.02 0.25,0.17 0.03,0.54 -0.24,0.41 -1.81,-0.85 -3.43,-1.9 -4.88,-3.13 -1.17,3 -1.99,6.22 -2.49,9.63 -1.76,12.04 1.38,26.75 12.26,33.61 4.71,2.97 10.09,4.58 15.67,4.6 2.719,0.009 5.07,-0.45 7.71,-1.1 1.79,-0.44 3.57,-1.08 5.44,-1.08 1.6,0 3.08,0.4 4.45,1.2 l -0.37996,0.0333 c -0.92337,0.0867 -0.74575,0.12573 0.53996,0.12573 4,0.171 6.289,4.231 4.45,7.761 l -0.24129,0.54535 c -0.0508,0.11024 -0.0939,0.20122 -0.12771,0.27365 l -0.14531,0.93635 c -0.0145,0.089 -0.0297,0.18065 -0.0457,0.27465 l -0.0556,0.18963 c -0.01,0.0304 -0.0211,0.0604 -0.0344,0.0904 l 5.99904,9.14832 c 7.35525,11.19137 14.87453,22.33954 23.43096,32.56168 6,7.17 12.36,14.2 19.08,20.71 6.04,5.85 13.28,8.67 20.12,13.27 3.651,2.44 4.72,7.55 1.401,10.84 -9.741,9.67 -23.531,1.99 -31.521,-5.87 -7.56,-7.45 -14.09,-16.41 -19.72,-25.38 -9.99,-15.95 -17.94,-32.91 -21.42,-51.32 -1.45,1.33 -3.3,2.16 -5.17,2.81 -3.75,1.3 -7.88,1.84 -11.84,1.98 -7.59,0.25 -15.19,-1.59 -22.02,-4.85 -27.79,-13.25 -31.87,-52.93 -14.88,-76.33 -2.290909,-6.64364 -3.570434,-13.85219 -4.96054,-19.99925 l -0.632426,-2.74784 C 37.999976,258.64779 33.2818,226.33292 45.7376,196.2577 c 1.6,-3.88 3.4,-7.66 5.53,-11.28 1.71,-2.91 4.65,-6.01 5.46,-9.32 1.8,-7.27 -9.31,-14.91 -12.55,-20.68 -3.81,-6.77 -4.35,-14.76 0.84,-20.951 0.66,-0.779 1.379,-1.5 2.16,-2.129 -4.92,-8.92 -5.15,-20.14 1.33,-28.94 4.26,-5.8 10.76,-9.86 17.86,-11.09 4.34,-0.75 9.56,-0.47 14.33,0.87 26.119,-24.25 55.92,-44.51 88.369,-59.23 z M 68.7671,336.9378 c 6.971,-6.15 14.671,-9.37 24.171,-8.56 9.55,0.819 21.05,4.77 26.659,12.96 4.431,6.47 -4.599,15.96 -11.099,11.1 -5.92,-4.43 -9.871,-9.43 -17.22,-11.81 -6.601,-2.13 -14.771,-3.5 -21.681,-2.28 -0.76,0.13 -1.519,-0.81 -0.83,-1.41 z" />
  </g>
  <path
     style="display:inline;fill-rule:evenodd;stroke:none;stroke-width:0.591886"
     fill="#000000"
     id="ðŸ–-Ink-9"
     d="m 455.83825,241.08523 c 6.58265,-2.96452 18.40271,-0.3777 22.69406,0.65108 9.97651,2.39244 20.01253,7.56277 23.11433,15.66285 3.49522,9.12885 -3.47862,12.00252 -4.50437,11.53318 -6.90635,0.48656 -15.1307,-9.62224 -22.3678,-10.74256 -5.87545,-0.91753 -13.18991,0.41927 -18.6945,-2.70233 -4.01901,2.21087 -15.88824,0.61388 -21.25993,6.45578 -6.23917,1.64544 -6.98813,7.72664 -12.77208,6.96787 -6.93239,-0.90924 -4.09482,-15.48947 3.63129,-21.39598 8.45584,-6.46423 22.75756,-9.08569 30.159,-6.42989 z m -12.4751,64.29638 c 5.29653,-2.66158 5.58731,-13.17268 6.23264,-17.63197 0.50389,-3.48394 -0.28298,-8.28048 6.92398,-7.89292 7.20692,0.38769 10.19507,3.44802 9.82954,8.12984 -0.23698,3.03598 -0.24304,16.73951 8.68736,18.68544 5.69324,-0.0219 12.8383,1.54962 18.8249,0.44568 7.04585,-1.59572 16.20805,-7.18297 18.62807,3.82016 0.87112,3.96003 -30.16666,15.72499 -43.93962,16.78919 -13.9678,2.83058 -30.31034,-1.52181 -40.25496,-12.20714 -2.2624,-2.43089 -36.55328,-23.68841 -37.00728,-26.16036 -0.954,-5.19413 -0.97888,-8.81564 5.44792,-6.98493 2.61655,5.53123 36.35162,28.17052 46.62745,23.00701 z" />
  <path
     style="display:inline;fill-rule:evenodd;stroke:none;stroke-width:0.591886"
     fill="#000000"
     id="ðŸ–-Ink-97"
     d="m 380.42312,244.48656 c -20.03153,38.54245 77.94762,75.97672 91.62037,66.50687 11.72547,-5.4394 24.24804,-7.91049 34.8846,-15.11545 2.3949,-3.98095 -6.8682,-16.83773 16.05344,-33.41454 11.44263,-10.71957 20.81192,-18.26419 25.94991,-29.25702 0.29997,-0.64242 3.24922,-7.02858 4.29103,-9.17023 1.60404,-3.32061 12.48237,-4.58016 7.41029,-5.49921 -3.90861,-0.70832 7.0091,54.14632 -1.99957,69.50206 -8.12679,13.86904 -34.53503,29.87713 -48.21967,38.33535 -15.14095,9.35247 -32.59549,7.84349 -50.6603,10.51476 -16.34822,2.41492 -32.92497,-0.64624 -44.76299,-11.82712 -12.37665,-11.69339 -36.36786,-40.04948 -36.36786,-40.04948 -1.42646,-3.4005 -6.78811,-27.6335 -5.30468,-24.28936 1.8625,4.19814 20.73645,-50.04069 7.10543,-16.23663 z" />
  <path
     style="fill-rule:evenodd;stroke:none;stroke-width:0.591886"
     fill="#000000"
     id="ðŸ–-Ink-81"
     d="m 451.34473,272.06066 c 4.36032,1.26276 9.04063,1.37582 13.48523,0.0708 4.0312,-1.18314 8.17052,-3.78649 11.13754,-7.23144 2.63566,-3.0606 4.34275,-6.77985 4.2756,-10.74982 -0.01,-0.45332 -0.16976,-0.83188 -0.41909,-1.1256 -0.26855,-0.31625 -0.64352,-0.53335 -1.0454,-0.6276 -0.41291,-0.0968 -0.8497,-0.062 -1.22156,0.10637 -0.33666,0.15304 -0.62505,0.4127 -0.80563,0.79231 -0.45586,0.59895 -0.91006,1.18905 -1.36594,1.76267 -3.66633,4.52713 -7.21681,7.91033 -12.72958,9.12379 -2.9911,0.65842 -5.97873,0.36651 -8.71964,-0.63826 -2.93403,-1.07543 -5.58638,-2.96638 -7.66508,-5.38622 -0.93899,-1.09348 -2.04803,-1.53994 -3.13238,-1.54726 -1.22887,-0.01 -2.44337,0.56234 -3.35835,1.47494 -0.89941,0.89708 -1.50164,2.11613 -1.55631,3.39134 -0.0481,1.11909 0.31714,2.28822 1.28853,3.33115 3.19935,3.4357 7.34569,5.95264 11.83206,7.25205 z m 0.13477,-56.6991 c -4.46969,2.71675 -11.28014,9.05203 -6.47159,15.78741 5.65962,5.93874 13.80852,-0.87047 17.82425,-3.95007 3.7234,-2.38658 7.90698,3.75167 4.45235,6.53849 -29.01714,21.48323 -40.79291,-17.66541 -18.06581,-21.57023 2.50224,-0.43035 3.43169,2.3539 2.2608,3.1944 z m 41.81131,-11.95463 c 1.43652,-0.91877 3.12641,-1.23418 4.99939,-0.382 1.46348,0.66548 4.03049,2.88424 5.81694,5.80103 1.22217,1.99541 2.0888,4.33632 1.90839,6.77462 -0.0426,0.56622 0.16721,0.98402 0.4973,1.2925 0.26071,0.24388 0.63718,0.42305 1.07926,0.479 0.3756,0.0473 0.79579,0.01 1.13757,-0.10199 0.65002,-0.20299 0.99403,-0.62464 1.12374,-0.96878 1.25079,-3.32183 0.71181,-7.0288 -0.68995,-10.373 -1.89196,-4.51333 -5.32755,-8.2938 -7.5784,-9.51265 -3.852,-2.08648 -8.39601,-2.18254 -12.25353,-0.0566 -3.28356,1.80904 -5.33669,4.73009 -7.37864,7.70713 -0.43406,0.63271 -0.86482,1.26104 -1.31025,1.87838 -0.89236,1.23676 -0.98116,2.46331 -0.63566,3.51522 0.38293,1.16506 1.35913,2.1485 2.57981,2.663 1.12824,0.47575 2.43769,0.54277 3.59635,0.054 0.97893,-0.41276 1.87723,-1.21756 2.4456,-2.58307 0.95733,-2.29976 2.55236,-4.83721 4.66208,-6.18634 z m -72.96097,5.11637 c 0.98382,0.51281 1.75352,0.66738 2.84492,0.34033 0.60359,-0.18119 1.20014,-0.52864 1.6671,-0.99568 0.46289,-0.46275 0.79703,-1.03848 0.92646,-1.67704 0.31936,-1.57574 1.18147,-3.05077 2.41015,-4.01243 1.05019,-0.82186 2.37578,-1.25718 3.84599,-1.01176 1.58656,0.26485 3.09813,1.28233 4.13922,2.48211 0.34795,0.40134 0.62069,0.85697 0.89487,1.31009 0.51299,0.84667 1.01144,1.63402 1.7189,2.25583 0.26821,0.2366 0.67238,0.4005 1.06368,0.4005 0.15907,0 0.3204,-0.0266 0.47405,-0.0733 1.57936,-1.58498 1.88298,-2.78733 1.83213,-3.97975 -0.0535,-1.25064 -0.54644,-2.51686 -1.3432,-3.69815 -1.86905,-2.77129 -5.41755,-5.04346 -7.81216,-5.55827 -3.27948,-0.70463 -6.53636,0.14147 -9.14746,1.97296 -2.6867,1.8847 -4.67769,4.81072 -5.29837,8.10825 -0.14938,0.79415 -0.0855,1.65149 0.21662,2.39469 0.29552,0.72638 0.81071,1.34827 1.5671,1.742 z m 65.72826,-34.66258 c 1.96825,1.9175 4.29748,2.21451 6.65397,2.47873 1.30916,0.14814 2.35457,0.26747 3.3832,0.49961 2.82714,0.63822 5.62163,1.59934 8.17114,2.9836 2.66514,1.44706 5.56956,3.1921 7.65897,5.42786 0.49687,0.53202 0.9652,1.09028 1.43423,1.64969 0.42772,0.51011 0.83974,1.00137 1.27386,1.47479 0.49875,0.54399 0.97199,1.1141 1.44328,1.68262 0.29116,0.47988 0.34867,0.5978 0.40726,0.72082 0.0881,0.18446 0.19104,0.39104 0.30825,0.61263 0.16042,0.3034 0.3488,0.63562 0.54542,0.93688 0.32796,0.55056 0.50399,0.70227 0.65582,0.7701 0.25223,0.11218 0.49134,0.1675 0.72348,0.13759 0.2175,-0.0287 0.42237,-0.13263 0.62478,-0.30363 1.0104,-0.85371 1.30848,-2.25465 1.27787,-3.74173 -0.0462,-2.25685 -0.87874,-4.75562 -1.64576,-6.29182 -1.78446,-3.56872 -4.25892,-7.27889 -7.23434,-9.94256 -3.39507,-3.04055 -7.10954,-5.34243 -11.37599,-6.9287 -2.65124,-0.98588 -5.72094,-1.89103 -8.6095,-1.77664 -2.07915,0.0819 -4.06404,0.70021 -5.7032,2.24366 -1.00652,0.94742 -1.4897,2.29511 -1.4897,3.6418 0,1.37362 0.5018,2.75514 1.49696,3.7247 z m -69.73094,17.55871 c 0.12524,0.20517 0.29846,0.34639 0.49122,0.43136 0.20198,0.0888 0.42761,0.11472 0.64414,0.0781 0.21546,-0.0373 0.42038,-0.13395 0.58292,-0.28319 0.15577,-0.14318 0.27426,-0.33284 0.3273,-0.56555 1.30672,-5.73867 3.84383,-10.00843 9.25903,-12.76189 2.66373,-1.35431 5.72701,-2.21508 8.62671,-2.90099 0.84263,-0.19948 1.73309,-0.32869 2.62965,-0.45953 2.81035,-0.41036 5.64087,-0.8803 7.47293,-3.15191 1.1038,-1.36834 1.5672,-3.11822 1.30527,-4.71873 -0.24673,-1.50681 -1.12722,-2.88856 -2.72786,-3.71644 -3.98493,-2.06042 -8.93706,-0.0386 -12.96119,1.68363 -0.2986,0.12779 -0.59153,0.25329 -0.87815,0.37427 -3.93534,1.66111 -7.52464,3.85378 -10.47507,6.98946 -2.34096,2.48772 -4.50992,6.16514 -5.38352,9.94853 -0.72676,3.14749 -0.55583,6.36063 1.08662,9.05284 z" />
</svg>
